<?xml version="1.0" encoding="UTF-8" ?>
<!DOCTYPE svg PUBLIC "-//W3C//DTD SVG 1.1//EN" "http://www.w3.org/Graphics/SVG/1.1/DTD/svg11.dtd">
<svg width="360pt" height="73pt" viewBox="0 0 360 73" version="1.1" xmlns="http://www.w3.org/2000/svg">
<g id="#6db647ff">
<path fill="#6db647" opacity="1.00" d=" M 21.36 0.00 L 338.45 0.00 C 344.32 0.77 350.28 5.62 349.96 11.96 C 349.94 28.30 349.93 44.64 349.97 60.99 C 350.29 67.35 344.30 72.18 338.42 73.00 L 21.48 73.00 C 14.87 72.53 9.07 66.77 9.09 60.06 C 8.97 45.70 9.13 31.34 9.02 16.98 C 9.01 13.51 8.90 9.79 10.83 6.74 C 12.94 2.87 17.08 0.57 21.36 0.00 M 13.71 14.05 C 13.71 29.05 13.71 44.05 13.71 59.05 C 13.32 64.13 18.00 68.70 23.06 68.31 C 90.81 68.31 158.57 68.32 226.32 68.31 C 226.28 47.11 226.28 25.91 226.32 4.71 C 158.56 4.72 90.79 4.71 23.03 4.71 C 17.95 4.34 13.29 8.95 13.71 14.05 M 250.43 26.54 C 242.71 28.54 237.63 37.36 239.99 45.02 C 241.87 52.68 250.44 57.89 258.09 55.80 C 265.46 54.18 270.81 46.44 269.57 38.96 C 268.57 30.20 258.87 23.80 250.43 26.54 M 273.23 38.04 C 273.01 43.66 273.25 49.30 273.11 54.92 C 274.66 54.88 276.22 54.87 277.77 54.93 C 277.79 49.63 277.62 44.33 277.79 39.03 C 277.84 35.16 281.15 31.82 284.93 31.35 C 289.23 30.56 294.04 33.40 294.79 37.84 C 295.42 43.51 294.94 49.23 295.03 54.92 C 296.56 54.88 298.10 54.88 299.63 54.93 C 299.50 49.32 299.75 43.71 299.52 38.11 C 299.15 31.32 292.84 25.58 286.01 26.05 C 279.45 25.91 273.61 31.55 273.23 38.04 M 304.86 34.17 C 300.66 41.96 304.94 52.70 313.41 55.34 C 320.43 58.05 328.42 54.36 332.09 48.07 C 330.59 47.41 329.08 46.75 327.58 46.08 C 325.06 49.86 320.38 52.23 315.86 50.82 C 311.92 50.00 309.50 46.46 308.51 42.79 C 316.43 42.76 324.34 42.84 332.26 42.81 C 332.19 38.02 331.51 32.65 327.57 29.39 C 320.76 23.35 308.59 25.75 304.86 34.17 Z" />
<path fill="#6db647" opacity="1.00" d=" M 174.38 16.43 C 177.25 15.06 180.84 17.89 180.17 21.01 C 179.69 24.28 175.00 25.86 172.91 23.07 C 170.78 21.13 171.82 17.42 174.38 16.43 Z" />
<path fill="#6db647" opacity="1.00" d=" M 113.01 17.87 C 115.45 17.86 117.89 17.87 120.33 17.87 C 120.32 30.29 120.32 42.72 120.33 55.14 C 117.67 55.02 114.69 55.70 112.36 54.10 C 106.84 57.90 98.75 56.65 94.45 51.56 C 89.24 45.82 89.33 36.18 94.63 30.52 C 99.21 25.36 107.71 24.43 113.17 28.77 C 113.03 25.13 113.05 21.50 113.01 17.87 M 98.39 43.90 C 99.88 48.96 106.65 51.11 110.78 47.81 C 114.52 45.40 112.58 40.41 113.12 36.76 C 111.44 35.01 109.58 33.15 107.01 32.97 C 101.26 31.97 96.17 38.55 98.39 43.90 Z" />
<path fill="#6db647" opacity="1.00" d=" M 205.76 17.87 C 208.21 17.87 210.67 17.87 213.13 17.87 C 213.13 30.29 213.13 42.72 213.13 55.15 C 210.58 54.76 207.13 56.21 205.33 53.77 C 199.06 58.57 189.32 56.26 185.36 49.60 C 181.01 43.11 182.56 33.44 188.96 28.86 C 193.85 25.10 200.99 25.30 205.94 28.85 C 205.72 25.19 205.74 21.53 205.76 17.87 M 192.91 34.88 C 188.60 38.37 189.39 45.97 194.36 48.45 C 198.42 50.78 203.36 48.61 205.86 45.05 C 205.76 42.40 205.75 39.74 205.85 37.09 C 203.05 33.01 196.76 31.26 192.91 34.88 Z" />
<path fill="#6db647" opacity="1.00" d=" M 33.48 28.40 C 38.25 25.10 44.93 25.43 49.47 29.03 C 49.40 28.41 49.27 27.16 49.20 26.54 C 51.48 26.53 53.77 26.54 56.06 26.55 C 55.85 36.08 55.95 45.62 55.99 55.15 C 53.66 54.74 49.97 56.34 48.97 53.46 C 43.21 58.49 33.74 56.43 29.68 50.26 C 24.76 43.56 26.35 32.92 33.48 28.40 M 39.33 33.43 C 34.09 35.28 32.39 42.75 36.25 46.73 C 39.59 50.87 47.24 50.01 49.22 45.02 C 49.40 42.11 49.66 39.10 48.97 36.25 C 46.87 33.31 42.68 32.11 39.33 33.43 Z" />
<path fill="#6db647" opacity="1.00" d=" M 60.67 39.02 C 60.85 32.13 67.00 25.98 73.95 26.11 C 81.04 25.72 87.60 31.86 87.73 38.94 C 87.90 44.33 87.71 49.73 87.81 55.12 C 85.36 55.23 82.92 55.02 80.48 55.12 C 80.42 49.75 80.67 44.38 80.41 39.02 C 80.30 35.80 77.24 33.06 74.03 33.32 C 70.91 33.20 68.20 35.94 68.01 38.99 C 67.69 44.36 67.98 49.75 67.91 55.13 C 65.48 55.13 63.04 55.13 60.61 55.13 C 60.69 49.76 60.49 44.39 60.67 39.02 Z" />
<path fill="#6db647" opacity="1.00" d=" M 129.63 28.62 C 132.25 26.57 135.66 26.33 138.83 25.97 C 138.89 28.30 138.83 30.64 138.89 32.97 C 135.91 33.33 132.36 34.59 131.80 37.99 C 131.28 43.67 131.73 49.40 131.61 55.10 C 129.37 55.08 127.13 55.17 124.90 55.14 C 124.96 49.76 124.77 44.37 124.96 39.00 C 125.07 35.13 126.36 30.96 129.63 28.62 Z" />
<path fill="#6db647" opacity="1.00" d=" M 149.52 26.74 C 157.64 24.03 167.25 29.50 168.84 37.94 C 170.73 45.61 165.47 54.00 157.83 55.82 C 150.02 58.11 141.17 52.82 139.30 44.95 C 137.09 37.40 142.00 28.85 149.52 26.74 M 151.48 33.65 C 146.18 35.22 144.25 42.70 148.28 46.56 C 152.18 51.12 160.59 48.89 161.70 42.97 C 163.35 37.20 157.06 31.52 151.48 33.65 Z" />
<path fill="#6db647" opacity="1.00" d=" M 171.92 26.54 C 174.39 26.53 176.87 26.53 179.35 26.53 C 179.28 36.07 179.33 45.60 179.33 55.13 C 176.86 55.13 174.39 55.13 171.92 55.13 C 171.92 45.60 171.93 36.07 171.92 26.54 Z" />
<path fill="#6db647" opacity="1.00" d=" M 251.46 31.70 C 258.65 28.97 266.65 36.68 264.05 43.95 C 262.22 51.08 251.98 53.40 247.29 47.72 C 242.39 42.84 244.90 33.65 251.46 31.70 Z" />
<path fill="#6db647" opacity="1.00" d=" M 308.78 37.63 C 310.57 34.02 313.56 30.16 318.04 30.34 C 322.55 30.03 325.49 33.98 327.17 37.63 C 321.04 37.83 314.91 37.83 308.78 37.63 Z" />
</g>
</svg>
