<?xml version="1.0" encoding="UTF-8" standalone="no"?>
<svg
   version="1.1"
   width="19.660225mm"
   height="19.653563mm"
   viewBox="0 0 19.660225 19.653563"
   id="svg3918"
   sodipodi:docname="octoprobe_logo_v3_inkscape_square.svg"
   inkscape:version="1.2.2 (b0a8486541, 2022-12-01)"
   inkscape:export-filename="octoprobe_logo_v3_inkscape.svg"
   inkscape:export-xdpi="96"
   inkscape:export-ydpi="96"
   xmlns:inkscape="http://www.inkscape.org/namespaces/inkscape"
   xmlns:sodipodi="http://sodipodi.sourceforge.net/DTD/sodipodi-0.dtd"
   xmlns="http://www.w3.org/2000/svg"
   xmlns:svg="http://www.w3.org/2000/svg"
   xmlns:rdf="http://www.w3.org/1999/02/22-rdf-syntax-ns#"
   xmlns:cc="http://creativecommons.org/ns#"
   xmlns:dc="http://purl.org/dc/elements/1.1/">
  <defs
     id="defs3918">
    <inkscape:path-effect
       effect="fillet_chamfer"
       id="path-effect3923"
       is_visible="true"
       lpeversion="1"
       nodesatellites_param="F,0,0,1,0,2,0,1 @ F,0,0,1,0,2,0,1 @ F,0,0,1,0,2,0,1 @ F,0,0,1,0,2,0,1"
       radius="2"
       unit="mm"
       method="auto"
       mode="F"
       chamfer_steps="1"
       flexible="false"
       use_knot_distance="true"
       apply_no_radius="true"
       apply_with_radius="true"
       only_selected="false"
       hide_knots="false" />
    <inkscape:path-effect
       effect="fillet_chamfer"
       id="path-effect3922"
       is_visible="true"
       lpeversion="1"
       nodesatellites_param="F,0,0,1,0,2,0,1 @ F,0,0,1,0,2,0,1 @ F,0,0,1,0,2,0,1 @ F,0,0,1,0,2,0,1"
       radius="2"
       unit="mm"
       method="arc"
       mode="F"
       chamfer_steps="1"
       flexible="false"
       use_knot_distance="true"
       apply_no_radius="true"
       apply_with_radius="true"
       only_selected="false"
       hide_knots="false" />
    <inkscape:path-effect
       effect="fillet_chamfer"
       id="path-effect3922-3"
       is_visible="true"
       lpeversion="1"
       nodesatellites_param="F,0,0,1,0,2,0,1 @ F,0,0,1,0,2,0,1 @ F,0,0,1,0,2,0,1 @ F,0,0,1,0,2,0,1"
       radius="2"
       unit="mm"
       method="arc"
       mode="F"
       chamfer_steps="1"
       flexible="false"
       use_knot_distance="true"
       apply_no_radius="true"
       apply_with_radius="true"
       only_selected="false"
       hide_knots="false" />
    <inkscape:path-effect
       effect="fillet_chamfer"
       id="path-effect3923-7"
       is_visible="true"
       lpeversion="1"
       nodesatellites_param="F,0,0,1,0,2,0,1 @ F,0,0,1,0,2,0,1 @ F,0,0,1,0,2,0,1 @ F,0,0,1,0,2,0,1"
       radius="2"
       unit="mm"
       method="auto"
       mode="F"
       chamfer_steps="1"
       flexible="false"
       use_knot_distance="true"
       apply_no_radius="true"
       apply_with_radius="true"
       only_selected="false"
       hide_knots="false" />
    <inkscape:path-effect
       effect="fillet_chamfer"
       id="path-effect3922-35"
       is_visible="true"
       lpeversion="1"
       nodesatellites_param="F,0,0,1,0,2,0,1 @ F,0,0,1,0,2,0,1 @ F,0,0,1,0,2,0,1 @ F,0,0,1,0,2,0,1"
       radius="2"
       unit="mm"
       method="arc"
       mode="F"
       chamfer_steps="1"
       flexible="false"
       use_knot_distance="true"
       apply_no_radius="true"
       apply_with_radius="true"
       only_selected="false"
       hide_knots="false" />
    <inkscape:path-effect
       effect="fillet_chamfer"
       id="path-effect3922-35-2"
       is_visible="true"
       lpeversion="1"
       nodesatellites_param="F,0,0,1,0,2,0,1 @ F,0,0,1,0,2,0,1 @ F,0,0,1,0,2,0,1 @ F,0,0,1,0,2,0,1"
       radius="2"
       unit="mm"
       method="arc"
       mode="F"
       chamfer_steps="1"
       flexible="false"
       use_knot_distance="true"
       apply_no_radius="true"
       apply_with_radius="true"
       only_selected="false"
       hide_knots="false" />
    <inkscape:path-effect
       effect="fillet_chamfer"
       id="path-effect3922-36"
       is_visible="true"
       lpeversion="1"
       nodesatellites_param="F,0,0,1,0,2,0,1 @ F,0,0,1,0,2,0,1 @ F,0,0,1,0,2,0,1 @ F,0,0,1,0,2,0,1"
       radius="2"
       unit="mm"
       method="arc"
       mode="F"
       chamfer_steps="1"
       flexible="false"
       use_knot_distance="true"
       apply_no_radius="true"
       apply_with_radius="true"
       only_selected="false"
       hide_knots="false" />
    <inkscape:path-effect
       effect="fillet_chamfer"
       id="path-effect3922-356"
       is_visible="true"
       lpeversion="1"
       nodesatellites_param="F,0,0,1,0,2,0,1 @ F,0,0,1,0,2,0,1 @ F,0,0,1,0,2,0,1 @ F,0,0,1,0,2,0,1"
       radius="2"
       unit="mm"
       method="arc"
       mode="F"
       chamfer_steps="1"
       flexible="false"
       use_knot_distance="true"
       apply_no_radius="true"
       apply_with_radius="true"
       only_selected="false"
       hide_knots="false" />
  </defs>
  <sodipodi:namedview
     id="namedview3918"
     pagecolor="#ffbcbc"
     bordercolor="#000000"
     borderopacity="0.25"
     inkscape:showpageshadow="2"
     inkscape:pageopacity="0.0"
     inkscape:pagecheckerboard="0"
     inkscape:deskcolor="#d1d1d1"
     inkscape:document-units="mm"
     showgrid="false"
     showguides="true"
     inkscape:lockguides="false"
     inkscape:zoom="7.9999999"
     inkscape:cx="39.375"
     inkscape:cy="35.5625"
     inkscape:window-width="1854"
     inkscape:window-height="1011"
     inkscape:window-x="0"
     inkscape:window-y="0"
     inkscape:window-maximized="1"
     inkscape:current-layer="svg3918"
     inkscape:clip-to-page="false">
    <sodipodi:guide
       position="-32.861113,175.20206"
       orientation="1,0"
       id="guide3932"
       inkscape:locked="false" />
    <sodipodi:guide
       position="-7.4108153,159.49445"
       orientation="0,-1"
       id="guide3933"
       inkscape:locked="false" />
    <sodipodi:guide
       position="-7.7201871,6.8646312"
       orientation="1,0"
       id="guide114"
       inkscape:locked="false" />
    <sodipodi:guide
       position="-2.5355189,10.004848"
       orientation="0,-1"
       id="guide116"
       inkscape:locked="false" />
    <sodipodi:guide
       position="41.404481,35.535788"
       orientation="1,0"
       id="guide2"
       inkscape:locked="false" />
  </sodipodi:namedview>
  <title
     id="title1">SVG Image created as pcb_octoprobe-brd.svg date 2024/06/20 12:52:59 </title>
  <desc
     id="desc1">Image generated by PCBNEW </desc>
  <path
     style="fill:none;fill-opacity:0;stroke:#000000;stroke-width:1.04879;stroke-linecap:butt;stroke-linejoin:miter;stroke-miterlimit:4;stroke-dasharray:none;stroke-opacity:1"
     id="rect3918"
     width="18.611435"
     height="18.604773"
     x="0.52439499"
     y="0.52439499"
     sodipodi:type="rect"
     d="M 2.524395,0.52439499 H 17.13583 a 2,2 45 0 1 2,2.00000001 v 14.604773 a 2,2 135 0 1 -2,2 H 2.524395 a 2,2 45 0 1 -2.00000001,-2 V 2.524395 A 2,2 135 0 1 2.524395,0.52439499 Z"
     inkscape:label="rect_white"
     inkscape:path-effect="#path-effect3922"
     inkscape:export-filename="octoprobe_logo_v3_inkscape.svg"
     inkscape:export-xdpi="96"
     inkscape:export-ydpi="96" />
  <path
     d="m 4.8004735,3.5308644 c -1.2464356,0 -2.1704102,1.0666015 -2.1704102,2.2944335 0,1.2619385 0.8681641,2.2882324 2.1735107,2.2882324 1.280542,0 2.1797119,-1.0200927 2.1797119,-2.2696289 0,-1.2464355 -0.9177734,-2.313037 -2.1828124,-2.313037 z m 0.012402,0.6294189 c 0.8681641,0 1.5595947,0.7813476 1.5595947,1.7425293 0,0.7968505 -0.7224365,1.5843994 -1.571997,1.5843994 -0.8526612,0 -1.550293,-0.7534424 -1.550293,-1.5999024 0,-0.9270751 0.6449219,-1.7270263 1.5626953,-1.7270263 z m 2.508374,2.1983154 c 0,0.9332764 0.703833,1.751831 1.6433105,1.751831 0.6325195,0 1.116211,-0.3689697 1.351856,-0.8030517 0.0217,-0.040308 0.04031,-0.1085205 0.04031,-0.1519287 0,-0.1705322 -0.139526,-0.3100586 -0.310058,-0.3100586 -0.1023199,0 -0.2263433,0.074414 -0.2759527,0.164331 C 9.631189,7.2670704 9.3428345,7.4903126 8.964563,7.4903126 c -0.5860107,0 -1.0231934,-0.539502 -1.0231934,-1.1317139 0,-0.5798096 0.4247803,-1.1069092 0.9921875,-1.1069092 0.3999756,0 0.7007324,0.2573487 0.8185547,0.5550049 0.043408,0.1116211 0.1705322,0.2015381 0.2883542,0.2015381 0.170533,0 0.310059,-0.1395264 0.310059,-0.3100586 0,-0.034106 -0.0093,-0.086816 -0.0217,-0.1178223 -0.201538,-0.508496 -0.7162356,-0.9487792 -1.3952639,-0.9487792 -0.9177734,0 -1.6123046,0.8123535 -1.6123046,1.7270263 z M 11.314804,4.0796681 v 0.6201171 h -0.403076 c -0.16123,0 -0.294556,0.1333252 -0.294556,0.2945557 0,0.1612305 0.133326,0.2945557 0.294556,0.2945557 h 0.399976 l -0.0031,1.9440673 v 0.027905 c 0,0.4805908 0.291455,0.8402588 0.812354,0.8402588 0.229443,0 0.437182,-0.086816 0.595312,-0.2077393 0.07441,-0.05581 0.124024,-0.1550293 0.124024,-0.2449463 0,-0.1674316 -0.139527,-0.306958 -0.310059,-0.306958 -0.06821,0 -0.142627,0.031006 -0.192236,0.065112 -0.06201,0.043408 -0.139527,0.071314 -0.235645,0.071314 -0.142627,0 -0.173633,-0.065112 -0.173633,-0.2666504 v -0.0062 l 0.0031,-1.9192626 H 12.3504 c 0.16123,0 0.294556,-0.1333252 0.294556,-0.2945557 0,-0.1612304 -0.133326,-0.2945556 -0.294556,-0.2945556 H 11.934921 V 4.0796681 c 0,-0.1705323 -0.139526,-0.3100586 -0.310058,-0.3100586 -0.173633,0 -0.310059,0.1426269 -0.310059,0.3100586 z m 3.454053,0.5550048 c -0.933277,0 -1.699121,0.7968506 -1.699121,1.7363281 0,0.9487793 0.768945,1.7177246 1.699121,1.7177246 0.936377,0 1.702221,-0.7875488 1.702221,-1.7177246 0,-0.9425781 -0.753442,-1.7363281 -1.702221,-1.7363281 z m -1.072803,1.7425293 c 0,-0.6046142 0.458887,-1.1162109 1.072803,-1.1162109 0.607715,0 1.075903,0.5084961 1.075903,1.1100097 0,0.5891114 -0.47749,1.0914063 -1.072803,1.0914063 -0.58601,0 -1.075903,-0.4836914 -1.075903,-1.0852051 z"
     id="text4508-2-9-8-7-2"
     style="font-weight:bold;font-size:6.35px;font-family:Manjari;-inkscape-font-specification:'Manjari, Bold';font-variant-ligatures:discretionary-ligatures;stroke-width:3"
     aria-label="Octo" />
  <metadata
     id="metadata3933">
    <rdf:RDF>
      <cc:Work
         rdf:about="">
        <dc:title>SVG Image created as pcb_octoprobe-brd.svg date 2024/06/20 12:52:59 </dc:title>
      </cc:Work>
    </rdf:RDF>
  </metadata>
  <path
     id="rect5"
     style="fill:#000000;fill-opacity:1;stroke-width:3"
     d="m 0.80516422,9.8305053 0.0199257,8.8762847 17.93601806,-0.01581 0.0115,-8.88263 z M 11.562415,11.008739 c 0.170532,0 0.310058,0.139527 0.310058,0.310059 v 1.305346 c 0.26665,-0.310058 0.592213,-0.505395 1.023194,-0.505395 0.421679,0 0.830957,0.167432 1.131713,0.461987 0.341065,0.337964 0.514698,0.799952 0.514698,1.26814 0,0.914672 -0.691432,1.723925 -1.624707,1.723925 -0.384473,0 -0.809254,-0.207739 -1.044898,-0.545703 l -0.03721,0.251148 c -0.02481,0.167431 -0.102319,0.310058 -0.272851,0.310058 -0.170532,0 -0.310059,-0.139526 -0.310059,-0.310058 v -3.959448 c 0,-0.170532 0.139527,-0.310059 0.310059,-0.310059 z m -9.7513415,1.11001 c 0.170532,0 0.248047,0.142627 0.272851,0.310058 l 0.03721,0.251148 c 0.235645,-0.337964 0.660426,-0.545703 1.044898,-0.545703 0.933275,0 1.624707,0.809254 1.624707,1.723925 0,0.468188 -0.173633,0.930177 -0.514697,1.26814 -0.300757,0.294555 -0.710035,0.461987 -1.131714,0.461987 -0.430981,0 -0.756543,-0.195337 -1.023194,-0.505395 v 1.305347 c 0,0.170532 -0.139526,0.310058 -0.310058,0.310058 -0.170532,0 -0.310059,-0.139526 -0.310059,-0.310058 v -3.959449 c 0,-0.170532 0.139527,-0.310058 0.310059,-0.310058 z m 3.689697,0 c 0.09612,0 0.244946,0.07131 0.297656,0.26665 l 0.03101,0.223242 c 0.08062,-0.173632 0.412378,-0.486792 0.756543,-0.486792 0.421679,0 0.725537,0.06201 0.725537,0.393775 0,0.167431 -0.08992,0.257348 -0.238745,0.275952 -0.117822,0.0124 -0.310059,-0.124024 -0.489892,-0.124024 -0.542602,0 -0.722437,0.455787 -0.722437,1.029395 v 1.599902 c 0,0.182935 -0.117822,0.297657 -0.310059,0.297657 -0.192236,0 -0.310058,-0.114722 -0.310058,-0.300757 v -2.85564 c 0,-0.186035 0.09922,-0.31936 0.260449,-0.31936 z m 3.5873771,0.0062 c 0.9487784,0 1.7022224,0.793751 1.7022224,1.736328 0,0.930175 -0.765846,1.717724 -1.7022224,1.717724 -0.9301737,0 -1.6991201,-0.768946 -1.6991201,-1.717724 0,-0.939477 0.7658464,-1.736328 1.6991201,-1.736328 z m 7.4135004,0.0093 c 0.821654,0 1.519287,0.679029 1.519287,1.522387 0,0.05891 -0.0031,0.117823 -0.0093,0.176734 -0.0186,0.151928 -0.15813,0.272851 -0.310058,0.272851 l -2.16731,0.0031 c 0.10542,0.446484 0.514698,0.855762 1.010791,0.855762 0.353467,0 0.648023,-0.201538 0.806153,-0.430981 0.04961,-0.07752 0.164331,-0.139527 0.257348,-0.139527 0.170532,0 0.310059,0.142627 0.310059,0.313159 0,0.05271 -0.02481,0.133326 -0.05581,0.176734 -0.257348,0.37517 -0.719336,0.694531 -1.308447,0.694531 -0.951879,0 -1.671216,-0.809254 -1.671216,-1.742529 0,-0.899169 0.713136,-1.702222 1.618506,-1.702222 z m -3.593579,0.595312 c -0.592211,0 -1.013892,0.508497 -1.013892,1.103809 0,0.288354 0.10542,0.58291 0.291455,0.787549 0.186035,0.204638 0.468189,0.331762 0.73794,0.331762 0.573608,0 1.001489,-0.523999 1.001489,-1.103808 0,-0.576709 -0.430982,-1.119312 -1.016992,-1.119312 z m -3.8199214,0.0217 c -0.6139137,0 -1.0728017,0.511598 -1.0728017,1.116211 0,0.601513 0.489893,1.085205 1.0759027,1.085205 0.5953109,0 1.0728024,-0.502295 1.0728024,-1.091406 0,-0.601513 -0.4681895,-1.11001 -1.0759034,-1.11001 z m -5.9159171,0.0031 c -0.269751,0 -0.551904,0.127124 -0.737939,0.331763 -0.186035,0.204638 -0.291455,0.499195 -0.291455,0.787549 0,0.595312 0.42168,1.103808 1.013891,1.103808 0.58601,0 1.016992,-0.542603 1.016992,-1.119311 0,-0.579809 -0.427881,-1.103809 -1.001489,-1.103809 z m 13.3294175,0 c -0.449585,0 -0.824756,0.341065 -0.945679,0.734839 l 1.826245,-0.0031 c -0.08061,-0.406169 -0.440283,-0.731731 -0.880566,-0.731731 z"
     sodipodi:nodetypes="cccccsscscsscsssssssscsscscsssssscccsscssssssccssssssscccscsscsssssssssssssssssssssccccc" />
  <rect
     style="fill:#000000;stroke-width:0"
     id="rect1"
     width="0"
     height="10.554136"
     x="25.231205"
     y="-1.0944595"
     inkscape:label="rect_vertical" />
</svg>
