<?xml version="1.0" encoding="UTF-8" standalone="no"?>
<svg
   version="1.1"
   width="51.336872mm"
   height="11.600756mm"
   viewBox="0 0 51.336872 11.600756"
   id="svg3918"
   sodipodi:docname="octoprobe_logo_v2_raw.svg"
   inkscape:version="1.3.1 (9b9bdc1480, 2023-11-25, custom)"
   xmlns:inkscape="http://www.inkscape.org/namespaces/inkscape"
   xmlns:sodipodi="http://sodipodi.sourceforge.net/DTD/sodipodi-0.dtd"
   xmlns="http://www.w3.org/2000/svg"
   xmlns:svg="http://www.w3.org/2000/svg"
   xmlns:rdf="http://www.w3.org/1999/02/22-rdf-syntax-ns#"
   xmlns:cc="http://creativecommons.org/ns#"
   xmlns:dc="http://purl.org/dc/elements/1.1/">
  <defs
     id="defs3918">
    <inkscape:path-effect
       effect="fillet_chamfer"
       id="path-effect3923"
       is_visible="true"
       lpeversion="1"
       nodesatellites_param="F,0,0,1,0,2,0,1 @ F,0,0,1,0,2,0,1 @ F,0,0,1,0,2,0,1 @ F,0,0,1,0,2,0,1"
       radius="2"
       unit="mm"
       method="auto"
       mode="F"
       chamfer_steps="1"
       flexible="false"
       use_knot_distance="true"
       apply_no_radius="true"
       apply_with_radius="true"
       only_selected="false"
       hide_knots="false" />
    <inkscape:path-effect
       effect="fillet_chamfer"
       id="path-effect3922"
       is_visible="true"
       lpeversion="1"
       nodesatellites_param="F,0,0,1,0,2,0,1 @ F,0,0,1,0,2,0,1 @ F,0,0,1,0,2,0,1 @ F,0,0,1,0,2,0,1"
       radius="2"
       unit="mm"
       method="arc"
       mode="F"
       chamfer_steps="1"
       flexible="false"
       use_knot_distance="true"
       apply_no_radius="true"
       apply_with_radius="true"
       only_selected="false"
       hide_knots="false" />
    <inkscape:path-effect
       effect="fillet_chamfer"
       id="path-effect3922-3"
       is_visible="true"
       lpeversion="1"
       nodesatellites_param="F,0,0,1,0,2,0,1 @ F,0,0,1,0,2,0,1 @ F,0,0,1,0,2,0,1 @ F,0,0,1,0,2,0,1"
       radius="2"
       unit="mm"
       method="arc"
       mode="F"
       chamfer_steps="1"
       flexible="false"
       use_knot_distance="true"
       apply_no_radius="true"
       apply_with_radius="true"
       only_selected="false"
       hide_knots="false" />
    <inkscape:path-effect
       effect="fillet_chamfer"
       id="path-effect3923-7"
       is_visible="true"
       lpeversion="1"
       nodesatellites_param="F,0,0,1,0,2,0,1 @ F,0,0,1,0,2,0,1 @ F,0,0,1,0,2,0,1 @ F,0,0,1,0,2,0,1"
       radius="2"
       unit="mm"
       method="auto"
       mode="F"
       chamfer_steps="1"
       flexible="false"
       use_knot_distance="true"
       apply_no_radius="true"
       apply_with_radius="true"
       only_selected="false"
       hide_knots="false" />
    <inkscape:path-effect
       effect="fillet_chamfer"
       id="path-effect3922-35"
       is_visible="true"
       lpeversion="1"
       nodesatellites_param="F,0,0,1,0,2,0,1 @ F,0,0,1,0,2,0,1 @ F,0,0,1,0,2,0,1 @ F,0,0,1,0,2,0,1"
       radius="2"
       unit="mm"
       method="arc"
       mode="F"
       chamfer_steps="1"
       flexible="false"
       use_knot_distance="true"
       apply_no_radius="true"
       apply_with_radius="true"
       only_selected="false"
       hide_knots="false" />
    <inkscape:path-effect
       effect="fillet_chamfer"
       id="path-effect3922-35-2"
       is_visible="true"
       lpeversion="1"
       nodesatellites_param="F,0,0,1,0,2,0,1 @ F,0,0,1,0,2,0,1 @ F,0,0,1,0,2,0,1 @ F,0,0,1,0,2,0,1"
       radius="2"
       unit="mm"
       method="arc"
       mode="F"
       chamfer_steps="1"
       flexible="false"
       use_knot_distance="true"
       apply_no_radius="true"
       apply_with_radius="true"
       only_selected="false"
       hide_knots="false" />
    <inkscape:path-effect
       effect="fillet_chamfer"
       id="path-effect3922-36"
       is_visible="true"
       lpeversion="1"
       nodesatellites_param="F,0,0,1,0,2,0,1 @ F,0,0,1,0,2,0,1 @ F,0,0,1,0,2,0,1 @ F,0,0,1,0,2,0,1"
       radius="2"
       unit="mm"
       method="arc"
       mode="F"
       chamfer_steps="1"
       flexible="false"
       use_knot_distance="true"
       apply_no_radius="true"
       apply_with_radius="true"
       only_selected="false"
       hide_knots="false" />
    <inkscape:path-effect
       effect="fillet_chamfer"
       id="path-effect3922-356"
       is_visible="true"
       lpeversion="1"
       nodesatellites_param="F,0,0,1,0,2,0,1 @ F,0,0,1,0,2,0,1 @ F,0,0,1,0,2,0,1 @ F,0,0,1,0,2,0,1"
       radius="2"
       unit="mm"
       method="arc"
       mode="F"
       chamfer_steps="1"
       flexible="false"
       use_knot_distance="true"
       apply_no_radius="true"
       apply_with_radius="true"
       only_selected="false"
       hide_knots="false" />
  </defs>
  <sodipodi:namedview
     id="namedview3918"
     pagecolor="#ffbcbc"
     bordercolor="#000000"
     borderopacity="0.25"
     inkscape:showpageshadow="2"
     inkscape:pageopacity="0.0"
     inkscape:pagecheckerboard="0"
     inkscape:deskcolor="#d1d1d1"
     inkscape:document-units="mm"
     showgrid="false"
     showguides="true"
     inkscape:lockguides="false"
     inkscape:zoom="4"
     inkscape:cx="129.5"
     inkscape:cy="34"
     inkscape:window-width="1854"
     inkscape:window-height="1011"
     inkscape:window-x="0"
     inkscape:window-y="0"
     inkscape:window-maximized="1"
     inkscape:current-layer="svg3918">
    <sodipodi:guide
       position="-32.170642,168.19856"
       orientation="1,0"
       id="guide3932"
       inkscape:locked="false" />
    <sodipodi:guide
       position="-6.7203457,152.49095"
       orientation="0,-1"
       id="guide3933"
       inkscape:locked="false" />
    <sodipodi:guide
       position="-7.0297175,-0.13887285"
       orientation="1,0"
       id="guide114"
       inkscape:locked="false" />
    <sodipodi:guide
       position="13.831142,3.150462"
       orientation="0,-1"
       id="guide116"
       inkscape:locked="false" />
  </sodipodi:namedview>
  <title
     id="title1">SVG Image created as pcb_octoprobe-brd.svg date 2024/06/20 12:52:59 </title>
  <desc
     id="desc1">Image generated by PCBNEW </desc>
  <path
     style="fill:none;fill-opacity:0;stroke:#000000;stroke-width:0.975677;stroke-linecap:butt;stroke-linejoin:miter;stroke-miterlimit:4;stroke-dasharray:none;stroke-opacity:1"
     id="rect3918"
     width="50.29834"
     height="12.259876"
     x="20.662897"
     y="132.71085"
     sodipodi:type="rect"
     d="m 22.662897,132.71085 h 46.29834 a 2,2 45 0 1 2,2 v 8.25987 a 2,2 135 0 1 -2,2 l -46.29834,0 a 2,2 45 0 1 -2,-2 v -8.25987 a 2,2 135 0 1 2,-2 z"
     transform="matrix(1.0012259,0,0,0.87648439,-20.199791,-115.8914)"
     inkscape:label="rect_white"
     inkscape:path-effect="#path-effect3922" />
  <metadata
     id="metadata3933">
    <rdf:RDF>
      <cc:Work
         rdf:about="">
        <dc:title>SVG Image created as pcb_octoprobe-brd.svg date 2024/06/20 12:52:59 </dc:title>
      </cc:Work>
    </rdf:RDF>
  </metadata>
  <g
     id="g2"
     transform="translate(1.0815889,-14.256759)">
    <path
       style="fill:#000000;fill-opacity:1;fill-rule:evenodd;stroke:none;stroke-width:0.15;stroke-linecap:round;stroke-linejoin:round;stroke-opacity:1"
       d="m 28.475998,19.500001 0.1257,0.123 0.1519,0.2985 0.0034,1.1927 -0.1468,0.2988 -0.123,0.1257 -0.2988,0.1521 -0.7167,0.003 -0.1013,-0.0498 -0.0019,-2.2405 0.0924,-0.047 0.7167,-0.003 z"
       id="path65" />
    <path
       style="fill:#000000;fill-opacity:1;fill-rule:evenodd;stroke:none;stroke-width:0.15;stroke-linecap:round;stroke-linejoin:round;stroke-opacity:1"
       d="m 36.094998,19.500001 0.1257,0.123 0.1519,0.2985 0.0034,1.1927 -0.1467,0.2988 -0.1231,0.1257 -0.299,0.1522 -0.4789,0.003 -0.2978,-0.1462 -0.1257,-0.1231 -0.1519,-0.2984 -0.0034,-1.1927 0.1468,-0.2989 0.123,-0.1257 0.299,-0.1522 0.4789,-0.003 z"
       id="path66" />
    <path
       style="fill:#000000;fill-opacity:1;fill-rule:evenodd;stroke:none;stroke-width:0.15;stroke-linecap:round;stroke-linejoin:round;stroke-opacity:1"
       d="m 40.618798,19.500001 0.1257,0.123 0.1519,0.2985 0.0034,1.1927 -0.1467,0.2988 -0.1231,0.1257 -0.2987,0.1521 -0.7168,0.003 -0.0998,-0.0491 -0.0019,-2.2419 0.091,-0.0463 0.7167,-0.003 z"
       id="path67" />
    <path
       style="fill:#000000;fill-opacity:1;fill-rule:evenodd;stroke:none;stroke-width:0.15;stroke-linecap:round;stroke-linejoin:round;stroke-opacity:1"
       d="m 45.070798,19.464701 0.0905,0.1777 -1.3638,0.2752 -5e-4,-0.2224 0.1116,-0.2273 0.219,-0.1114 0.7167,-0.003 z"
       id="path68" />
    <g
       id="g3">
      <path
         style="fill:#000000;fill-opacity:1;fill-rule:evenodd;stroke:none;stroke-width:0.15;stroke-linecap:round;stroke-linejoin:round;stroke-opacity:1"
         d="m 38.515098,17.185501 0.0017,1.9339 -4e-4,0.006 4e-4,0.002 0.0023,2.7711 -0.0027,0.0133 0.0028,0.0462 2e-4,0.2926 0.0338,0.126 0.0653,0.1131 0.0923,0.0923 0.113,0.0652 0.1261,0.0338 h 0.1305 l 0.1261,-0.0338 0.0459,-0.0265 0.0113,0.006 0.0363,0.0209 0.014,0.004 0.014,0.007 0.0494,0.0101 0.0487,0.013 0.0221,0.001 0.0077,10e-4 0.0085,-5e-4 0.0269,0.002 0.9428,-0.004 0.0451,0.003 0.0144,-0.003 0.0154,-10e-5 0.0487,-0.013 0.0493,-0.0101 0.0205,-0.009 0.0076,-0.002 0.0073,-0.004 0.0249,-0.0105 0.4332,-0.2205 0.0107,-0.003 0.0378,-0.0218 0.051,-0.0259 0.0112,-0.01 0.0131,-0.008 0.0492,-0.0431 0.2044,-0.2089 0.0077,-0.005 0.0262,-0.0295 0.0429,-0.0438 0.0075,-0.0131 0.01,-0.0112 0.033,-0.0565 0.2319,-0.4722 0.0209,-0.0362 0.0038,-0.0141 0.0069,-0.014 0.0101,-0.0493 0.013,-0.0487 0.0015,-0.0222 0.0015,-0.008 -5e-4,-0.009 0.0018,-0.027 -0.0041,-1.4173 0.0028,-0.0467 -0.0029,-0.0146 -10e-5,-0.0152 -0.013,-0.0487 -0.0101,-0.0494 -0.0086,-0.0204 -0.0021,-0.008 -0.0042,-0.007 -0.0105,-0.0249 -0.0074,-0.0145 h 0.965 l 0.0021,0.9701 -0.001,0.0156 0.001,0.005 0.002,0.9018 -0.0029,0.0476 0.003,0.0146 v 0.0152 l 0.0131,0.0487 0.0101,0.0493 0.0086,0.0205 0.002,0.008 0.0043,0.007 0.0104,0.0249 0.2277,0.4474 0.008,0.0239 0.0183,0.0277 0.0172,0.0337 0.0199,0.0224 0.0165,0.0251 0.0266,0.0236 0.0236,0.0265 0.025,0.0166 0.0225,0.0199 0.0564,0.033 0.0049,0.002 h 1e-4 v 10e-5 l 0.4672,0.2294 0.0363,0.0209 0.014,0.004 0.014,0.007 0.0494,0.0101 0.0487,0.013 0.0221,0.001 0.0077,0.001 0.0085,-5e-4 0.0269,0.002 0.9428,-0.004 0.0451,0.003 0.0144,-0.003 0.0154,-10e-5 0.0487,-0.013 0.0493,-0.0101 0.0205,-0.009 0.0076,-0.002 0.0073,-0.004 0.0249,-0.0105 0.5327,-0.2711 0.0976,-0.0866 0.072,-0.1089 0.0412,-0.1239 0.0079,-0.1302 -0.0262,-0.1279 -0.0584,-0.1168 -0.0866,-0.0976 -0.1089,-0.0719 -0.1238,-0.0413 -0.1303,-0.008 -0.1279,0.0261 -0.0603,0.0254 -0.365,0.1858 -0.7167,0.003 -0.2266,-0.1113 -0.1112,-0.2185 -9e-4,-0.431 1.9322,-0.3898 h 0.0152 l 0.0463,-0.0125 0.0496,-0.01 0.0145,-0.007 0.0157,-0.004 0.0426,-0.0247 0.0442,-0.0218 0.0122,-0.0107 0.014,-0.008 0.0348,-0.0348 0.0371,-0.0326 0.0089,-0.0134 0.0115,-0.0115 0.0246,-0.0427 0.0274,-0.041 0.0052,-0.0153 0.008,-0.014 0.0128,-0.0476 0.0158,-0.0467 0.001,-0.0162 0.0042,-0.0156 0.0043,-0.0653 -0.0037,-0.4706 0.0025,-0.041 -0.0029,-0.0142 -2e-4,-0.0156 -0.013,-0.0487 -0.0101,-0.0494 -0.0086,-0.0204 -0.0021,-0.008 -0.0042,-0.007 -0.0105,-0.0249 -0.2277,-0.4473 -0.0079,-0.0239 -0.0184,-0.0278 -0.0171,-0.0336 -0.0199,-0.0225 -0.0166,-0.025 -0.0265,-0.0236 -0.0236,-0.0266 -0.0251,-0.0165 -0.0224,-0.0199 -0.0565,-0.0331 -0.0048,-0.002 -10e-5,-10e-5 h -1e-4 l -0.4672,-0.2295 -0.0362,-0.0209 -0.014,-0.004 -0.0141,-0.007 -0.0493,-0.0101 -0.0487,-0.0131 -0.0222,-0.001 -0.0076,-0.002 -0.0085,5e-4 -0.027,-0.002 -0.9427,0.004 -0.0451,-0.003 -0.0144,0.003 h -0.0154 l -0.0487,0.0131 -0.0494,0.0101 -0.0204,0.009 -0.0076,0.002 -0.0074,0.004 -0.0249,0.0104 -0.4473,0.2277 -0.0239,0.008 -0.0278,0.0183 -0.0336,0.0172 -0.0225,0.0199 -0.025,0.0165 -0.0236,0.0266 -0.0266,0.0236 -0.0165,0.025 -0.0199,0.0225 -0.0331,0.0564 -0.0024,0.005 v 10e-5 0 l -0.2294,0.4672 -0.021,0.0363 -0.0037,0.014 -0.0069,0.014 -0.0101,0.0494 -0.0131,0.0487 -0.0014,0.0221 -0.0016,0.008 5e-4,0.008 -0.0017,0.0269 h -0.965 l -0.2131,-0.4187 -0.0029,-0.0107 -0.0217,-0.0377 -0.026,-0.051 -0.01,-0.0113 -0.0075,-0.013 -0.0431,-0.0492 -0.2089,-0.2044 -0.0051,-0.008 -0.0296,-0.0263 -0.0437,-0.0428 -0.0131,-0.008 -0.0112,-0.01 -0.0565,-0.0331 -0.4722,-0.2319 -0.0362,-0.0209 -0.0141,-0.004 -0.014,-0.007 -0.0493,-0.0101 -0.0487,-0.0131 -0.0222,-0.001 -0.0076,-0.002 -0.0085,5e-4 -0.027,-0.002 -0.9318,0.004 -0.001,-1.2359 -0.0338,-0.126 -0.0653,-0.1131 -0.0923,-0.0923 -0.113,-0.0652 -0.1261,-0.0338 h -0.1305 l -0.1261,0.0338 -0.113,0.0652 -0.0923,0.0923 -0.0653,0.1131 -0.0338,0.126 -0.0043,0.0653 m -15.30961,-2.227197 26.032274,0.01318 0.164073,10.266065 -26.332256,0.104128 m 3.302719,-6.480373 0.0026,3.0533 -0.0014,0.006 0.0014,0.0224 0.0017,1.983 0.0337,0.1261 0.0653,0.113 0.0923,0.0923 0.113,0.0653 0.1261,0.0338 h 0.1305 l 0.1261,-0.0338 0.1131,-0.0653 0.0923,-0.0923 0.0652,-0.113 0.0338,-0.1261 0.0043,-0.0652 -0.001,-1.1668 0.9199,-0.004 0.0451,0.003 0.0144,-0.003 0.0154,-10e-5 0.0487,-0.013 0.0494,-0.0101 0.0204,-0.009 0.0076,-0.002 0.0074,-0.004 0.0249,-0.0105 0.4332,-0.2205 0.0107,-0.003 0.0377,-0.0218 0.051,-0.0259 0.0113,-0.01 0.013,-0.008 0.0492,-0.0431 0.2044,-0.2089 0.0077,-0.005 0.0263,-0.0295 0.0428,-0.0438 0.0075,-0.0131 0.01,-0.0112 0.0331,-0.0565 0.2318,-0.4722 0.021,-0.0362 0.0037,-0.0141 0.0069,-0.014 0.0101,-0.0493 0.0131,-0.0487 0.0014,-0.0222 0.0016,-0.008 -5e-4,-0.009 0.0017,-0.027 -0.004,-1.4173 0.0028,-0.0467 -0.003,-0.0146 v -0.0152 l -0.0131,-0.0487 -0.0101,-0.0494 -0.0086,-0.0204 -0.002,-0.008 -0.0043,-0.007 -0.0104,-0.0249 -0.2206,-0.4332 -0.0028,-0.0107 -0.0218,-0.0377 -0.026,-0.051 -0.01,-0.0113 -0.0075,-0.013 -0.0431,-0.0492 -0.1253,-0.1226 h 1.6527 l 0.0043,3.3986 0.0338,0.126 0.0652,0.1131 0.0923,0.0923 0.1131,0.0652 0.126,0.0338 h 0.1306 l 0.126,-0.0338 0.1131,-0.0652 0.0923,-0.0923 0.0652,-0.1131 0.0338,-0.126 0.0043,-0.0653 -0.0028,-2.2591 0.0598,-0.1219 h 1.8001 l 0.0041,1.4174 -0.0028,0.0467 0.003,0.0145 v 0.0153 l 0.0131,0.0487 0.0101,0.0493 0.0086,0.0205 0.002,0.008 0.0042,0.007 0.0105,0.0249 0.2205,0.4332 0.0029,0.0107 0.0218,0.0378 0.0259,0.051 0.01,0.0112 0.0076,0.0131 0.0431,0.0492 0.2088,0.2044 0.0051,0.008 0.0296,0.0262 0.0437,0.0429 0.0131,0.008 0.0113,0.01 0.0564,0.033 0.4722,0.2319 0.0363,0.0209 0.014,0.004 0.014,0.007 0.0494,0.0101 0.0487,0.013 0.0221,0.001 0.0077,0.001 0.0085,-5e-4 0.0269,0.002 0.7061,-0.004 0.0436,0.003 0.0144,-0.003 0.0155,-10e-5 0.0486,-0.013 0.0494,-0.0101 0.0205,-0.009 0.0075,-0.002 0.0074,-0.004 0.0249,-0.0105 0.4332,-0.2205 0.0107,-0.003 0.0378,-0.0218 0.051,-0.0259 0.0112,-0.01 0.0131,-0.008 0.0491,-0.0431 0.2045,-0.2089 0.0077,-0.005 0.0262,-0.0295 0.0429,-0.0438 0.0075,-0.0131 0.01,-0.0112 0.033,-0.0565 0.2319,-0.4722 0.0209,-0.0362 0.0038,-0.0141 0.0069,-0.014 0.0101,-0.0493 0.013,-0.0487 0.0015,-0.0222 0.0015,-0.008 -5e-4,-0.009 0.0018,-0.027 -0.0041,-1.4173 0.0028,-0.0467 -0.003,-0.0146 v -0.0152 l -0.013,-0.0487 -0.0101,-0.0494 -0.0087,-0.0204 -0.002,-0.008 -0.0042,-0.007 -0.0105,-0.0249 -0.2205,-0.4332 -0.0029,-0.0107 -0.0218,-0.0377 -0.0259,-0.051 -0.01,-0.0113 -0.0075,-0.013 -0.0432,-0.0492 -0.2088,-0.2044 -0.0051,-0.008 -0.0296,-0.0263 -0.0437,-0.0428 -0.0131,-0.008 -0.0112,-0.01 -0.0565,-0.0331 -0.4722,-0.2319 -0.0363,-0.0209 -0.014,-0.004 -0.014,-0.007 -0.0494,-0.0101 -0.0486,-0.0131 -0.0222,-10e-4 -0.0077,-0.002 -0.0084,5e-4 -0.027,-0.002 -0.7061,0.004 -0.0436,-0.003 -0.0144,0.003 h -0.0154 l -0.0487,0.0131 -0.0494,0.0101 -0.0205,0.009 -0.0075,0.002 -0.0074,0.004 -0.0249,0.0104 -0.4332,0.2205 -0.0107,0.003 -0.0378,0.0218 -0.0509,0.026 -0.0113,0.01 -0.0131,0.008 -0.0491,0.0431 -0.2045,0.2088 -0.0077,0.005 -0.0262,0.0296 -0.0428,0.0438 -0.0076,0.013 -0.01,0.0113 -0.033,0.0564 -0.2319,0.4722 -0.0209,0.0363 -0.0038,0.014 -0.0068,0.014 -0.0101,0.0494 -0.0131,0.0487 -0.0014,0.0221 -0.0016,0.008 5e-4,0.008 -0.0018,0.0269 h -1.8001 l 0.086,-0.1751 0.1231,-0.1257 0.2995,-0.1524 0.4282,-0.003 0.1261,-0.0338 0.113,-0.0653 0.0923,-0.0923 0.0653,-0.113 0.0338,-0.1261 v -0.1305 l -0.0338,-0.1261 -0.0653,-0.113 -0.0923,-0.0923 -0.113,-0.0653 -0.1261,-0.0338 -0.0652,-0.004 -0.4707,0.004 -0.041,-0.003 -0.0141,0.003 -0.0157,10e-5 -0.0487,0.0131 -0.0493,0.0101 -0.0205,0.009 -0.0076,0.002 -0.0073,0.004 -0.0249,0.0104 -0.3204,0.1631 -0.0117,-0.0202 -0.0923,-0.0923 -0.1131,-0.0653 -0.126,-0.0338 h -0.1306 l -0.126,0.0338 -0.1131,0.0653 -0.0923,0.0923 -0.0652,0.113 -0.0338,0.1261 -0.0043,0.0653 h -1.6527 l -0.0835,-0.0818 -0.0051,-0.008 -0.0296,-0.0263 -0.0438,-0.0428 -0.013,-0.008 -0.0113,-0.01 -0.0564,-0.0331 -0.4723,-0.2319 -0.0362,-0.0209 -0.014,-0.004 -0.014,-0.007 -0.0494,-0.0101 -0.0487,-0.0131 -0.0221,-0.001 -0.0077,-0.002 -0.0085,5e-4 -0.0269,-0.002 -0.9428,0.004 -0.0451,-0.003 -0.0144,0.003 h -0.0154 l -0.0487,0.0131 -0.0493,0.0101 -0.0205,0.009 -0.0076,0.002 -0.0073,0.004 -0.0249,0.0104 -0.019,0.01 -0.0423,-0.0244 -0.1261,-0.0338 h -0.1305 l -0.1261,0.0338 -0.113,0.0653 -0.0923,0.0923 -0.0653,0.113 -0.0337,0.1261 -0.0043,0.0653"
         id="path69"
         sodipodi:nodetypes="ccccccccccccccccccccccccccccccccccccccccccccccccccccccccccccccccccccccccccccccccccccccccccccccccccccccccccccccccccccccccccccccccccccccccccccccccccccccccccccccccccccccccccccccccccccccccccccccccccccccccccccccccccccccccccccccccccccccccccccccccccccccccccccccccccccccccccccccccccccccccccccccccccccccccccccccccccccccccccccccccccccccccccccccccccccccccccccccccccccccccccccccccccccccccccccccccccccccccccccccccccccccccccccccccccccccccccccccccccccccccccccccccccccccccccccccccccccccccccccccccccccccccccccccccccccccccccccccccccccccccccccccccccccccccccccccccccccccccccccccccccccccccccc" />
    </g>
  </g>
  <g
     class="stroked-text"
     id="g965"
     style="fill:none;stroke:#000000;stroke-width:1;stroke-linecap:round;stroke-linejoin:round;stroke-opacity:1"
     transform="translate(-23.747321,-146.50813)"
     inkscape:label="g_octo">
    <desc
       id="desc918">Octo</desc>
    <path
       d="m 29.8843,149.4627 h 0.9524"
       id="path918" />
    <path
       d="m 30.8367,149.4627 0.4761,0.2381"
       id="path919" />
    <path
       d="m 31.3128,149.7008 0.4762,0.4762"
       id="path920" />
    <path
       d="m 31.789,150.177 0.2381,0.9524"
       id="path921" />
    <path
       d="m 32.0271,151.1294 v 1.6666"
       id="path922" />
    <path
       d="m 32.0271,152.796 -0.2381,0.9524"
       id="path923" />
    <path
       d="m 31.789,153.7484 -0.4762,0.4762"
       id="path924" />
    <path
       d="m 31.3128,154.2246 -0.4761,0.2381"
       id="path925" />
    <path
       d="M 30.8367,154.4627 H 29.8843"
       id="path926" />
    <path
       d="m 29.8843,154.4627 -0.4762,-0.2381"
       id="path927" />
    <path
       d="m 29.4081,154.2246 -0.4762,-0.4762"
       id="path928" />
    <path
       d="M 28.9319,153.7484 28.6938,152.796"
       id="path929" />
    <path
       d="m 28.6938,152.796 v -1.6666"
       id="path930" />
    <path
       d="m 28.6938,151.1294 0.2381,-0.9524"
       id="path931" />
    <path
       d="m 28.9319,150.177 0.4762,-0.4762"
       id="path932" />
    <path
       d="m 29.4081,149.7008 0.4762,-0.2381"
       id="path933" />
    <path
       d="m 36.3128,154.2246 -0.4761,0.2381"
       id="path934" />
    <path
       d="M 35.8367,154.4627 H 34.8843"
       id="path935" />
    <path
       d="m 34.8843,154.4627 -0.4762,-0.2381"
       id="path936" />
    <path
       d="M 34.4081,154.2246 34.17,153.9865"
       id="path937" />
    <path
       d="m 34.17,153.9865 -0.2381,-0.4762"
       id="path938" />
    <path
       d="m 33.9319,153.5103 v -1.4286"
       id="path939" />
    <path
       d="M 33.9319,152.0817 34.17,151.6056"
       id="path940" />
    <path
       d="m 34.17,151.6056 0.2381,-0.2381"
       id="path941" />
    <path
       d="m 34.4081,151.3675 0.4762,-0.2381"
       id="path942" />
    <path
       d="m 34.8843,151.1294 h 0.9524"
       id="path943" />
    <path
       d="m 35.8367,151.1294 0.4761,0.2381"
       id="path944" />
    <path
       d="m 37.7414,151.1294 h 1.9048"
       id="path945" />
    <path
       d="m 38.4557,149.4627 v 4.2857"
       id="path946" />
    <path
       d="m 38.4557,153.7484 0.2381,0.4762"
       id="path947" />
    <path
       d="m 38.6938,154.2246 0.4762,0.2381"
       id="path948" />
    <path
       d="m 39.17,154.4627 h 0.4762"
       id="path949" />
    <path
       d="m 42.0271,154.4627 -0.4762,-0.2381"
       id="path950" />
    <path
       d="m 41.5509,154.2246 -0.2381,-0.2381"
       id="path951" />
    <path
       d="m 41.3128,153.9865 -0.238,-0.4762"
       id="path952" />
    <path
       d="m 41.0748,153.5103 v -1.4286"
       id="path953" />
    <path
       d="m 41.0748,152.0817 0.238,-0.4761"
       id="path954" />
    <path
       d="m 41.3128,151.6056 0.2381,-0.2381"
       id="path955" />
    <path
       d="m 41.5509,151.3675 0.4762,-0.2381"
       id="path956" />
    <path
       d="m 42.0271,151.1294 h 0.7143"
       id="path957" />
    <path
       d="m 42.7414,151.1294 0.4762,0.2381"
       id="path958" />
    <path
       d="m 43.2176,151.3675 0.2381,0.2381"
       id="path959" />
    <path
       d="m 43.4557,151.6056 0.2381,0.4761"
       id="path960" />
    <path
       d="m 43.6938,152.0817 v 1.4286"
       id="path961" />
    <path
       d="m 43.6938,153.5103 -0.2381,0.4762"
       id="path962" />
    <path
       d="m 43.4557,153.9865 -0.2381,0.2381"
       id="path963" />
    <path
       d="m 43.2176,154.2246 -0.4762,0.2381"
       id="path964" />
    <path
       d="M 42.7414,154.4627 H 42.0271"
       id="path965" />
  </g>
</svg>
