<?xml version="1.0" encoding="UTF-8" standalone="no"?>
<svg
   version="1.1"
   width="66.25573mm"
   height="10.654857mm"
   viewBox="0 0 66.25573 10.654857"
   id="svg3918"
   xmlns="http://www.w3.org/2000/svg"
   xmlns:svg="http://www.w3.org/2000/svg"
   xmlns:rdf="http://www.w3.org/1999/02/22-rdf-syntax-ns#"
   xmlns:cc="http://creativecommons.org/ns#"
   xmlns:dc="http://purl.org/dc/elements/1.1/">
  <defs
     id="defs3918" />
  <title
     id="title1">SVG Image created as pcb_octoprobe-brd.svg date 2024/06/20 12:52:59 </title>
  <desc
     id="desc1">Image generated by PCBNEW </desc>
  <path
     style="fill:none;fill-opacity:0;stroke:#000000;stroke-width:1.04879;stroke-linecap:butt;stroke-linejoin:miter;stroke-miterlimit:4;stroke-dasharray:none;stroke-opacity:1"
     id="rect3918"
     width="50.29834"
     height="12.259876"
     x="20.662897"
     y="132.71085"
     d="m 22.662897,132.71085 h 46.29834 a 2,2 45 0 1 2,2 v 8.25987 a 2,2 135 0 1 -2,2 l -46.29834,0 a 2,2 45 0 1 -2,-2 v -8.25987 a 2,2 135 0 1 2,-2 z"
     transform="matrix(0.78104413,0,0,0.80059538,-15.729059,-105.82786)" />
  <path
     d="m 4.7628275,3.1201357 c -1.2464356,0 -2.1704102,1.0666015 -2.1704102,2.2944335 0,1.2619385 0.8681641,2.2882324 2.1735107,2.2882324 1.280542,0 2.1797119,-1.0200927 2.1797119,-2.2696289 0,-1.2464355 -0.9177734,-2.313037 -2.1828124,-2.313037 z m 0.012402,0.6294189 c 0.8681641,0 1.5595947,0.7813476 1.5595947,1.7425293 0,0.7968505 -0.7224365,1.5843994 -1.571997,1.5843994 -0.8526612,0 -1.550293,-0.7534424 -1.550293,-1.5999024 0,-0.9270751 0.6449219,-1.7270263 1.5626953,-1.7270263 z M 7.2836035,5.94787 c 0,0.9332764 0.703833,1.751831 1.6433105,1.751831 0.6325195,0 1.116211,-0.3689697 1.351856,-0.8030517 0.0217,-0.040308 0.04031,-0.1085205 0.04031,-0.1519287 0,-0.1705322 -0.139526,-0.3100586 -0.310058,-0.3100586 -0.1023199,0 -0.2263433,0.074414 -0.2759527,0.164331 C 9.593543,6.8563417 9.3051885,7.0795839 8.926917,7.0795839 c -0.5860107,0 -1.0231934,-0.539502 -1.0231934,-1.1317139 0,-0.5798096 0.4247803,-1.1069092 0.9921875,-1.1069092 0.3999756,0 0.7007324,0.2573487 0.8185547,0.5550049 0.043408,0.1116211 0.1705322,0.2015381 0.2883542,0.2015381 0.170533,0 0.310059,-0.1395264 0.310059,-0.3100586 0,-0.034106 -0.0093,-0.086816 -0.0217,-0.1178223 -0.201538,-0.508496 -0.7162356,-0.9487792 -1.3952639,-0.9487792 -0.9177734,0 -1.6123046,0.8123535 -1.6123046,1.7270263 z M 11.277158,3.6689394 v 0.6201171 h -0.403076 c -0.16123,0 -0.294556,0.1333252 -0.294556,0.2945557 0,0.1612305 0.133326,0.2945557 0.294556,0.2945557 h 0.399976 l -0.0031,1.9440673 v 0.027905 c 0,0.4805908 0.291455,0.8402588 0.812354,0.8402588 0.229443,0 0.437182,-0.086816 0.595312,-0.2077393 0.07441,-0.05581 0.124024,-0.1550293 0.124024,-0.2449463 0,-0.1674316 -0.139527,-0.306958 -0.310059,-0.306958 -0.06821,0 -0.142627,0.031006 -0.192236,0.065112 -0.06201,0.043408 -0.139527,0.071314 -0.235645,0.071314 -0.142627,0 -0.173633,-0.065112 -0.173633,-0.2666504 v -0.0062 l 0.0031,-1.9192626 h 0.418579 c 0.16123,0 0.294556,-0.1333252 0.294556,-0.2945557 0,-0.1612304 -0.133326,-0.2945556 -0.294556,-0.2945556 H 11.897275 V 3.6689394 c 0,-0.1705323 -0.139526,-0.3100586 -0.310058,-0.3100586 -0.173633,0 -0.310059,0.1426269 -0.310059,0.3100586 z m 3.454053,0.5550048 c -0.933277,0 -1.699121,0.7968506 -1.699121,1.7363281 0,0.9487793 0.768945,1.7177246 1.699121,1.7177246 0.936377,0 1.702221,-0.7875488 1.702221,-1.7177246 0,-0.9425781 -0.753442,-1.7363281 -1.702221,-1.7363281 z m -1.072803,1.7425293 c 0,-0.6046142 0.458887,-1.1162109 1.072803,-1.1162109 0.607715,0 1.075903,0.5084961 1.075903,1.1100097 0,0.5891114 -0.47749,1.0914063 -1.072803,1.0914063 -0.58601,0 -1.075903,-0.4836914 -1.075903,-1.0852051 z"
     id="text4508-2-9-8-7-2"
     style="font-weight:bold;font-size:6.35px;font-family:Manjari;-inkscape-font-specification:'Manjari, Bold';font-variant-ligatures:discretionary-ligatures;stroke-width:3"
     aria-label="Octo" />
  <metadata
     id="metadata3933">
    <rdf:RDF>
      <cc:Work
         rdf:about="">
        <dc:title>SVG Image created as pcb_octoprobe-brd.svg date 2024/06/20 12:52:59 </dc:title>
      </cc:Work>
    </rdf:RDF>
  </metadata>
  <path
     id="rect5"
     style="fill:#000000;fill-opacity:1;stroke-width:3"
     d="M 18.42147,0.74430772 V 9.8429772 H 39.331304 V 0.74430772 Z M 30.564398,3.0547611 c 0.170532,0 0.310058,0.1395266 0.310058,0.3100586 v 1.3053467 c 0.26665,-0.3100583 0.592213,-0.5053955 1.023194,-0.5053955 0.421679,0 0.830957,0.1674319 1.131713,0.4619873 0.341065,0.3379635 0.514698,0.7999516 0.514698,1.2681396 0,0.914672 -0.691432,1.7239258 -1.624707,1.7239258 -0.384473,0 -0.809254,-0.2077396 -1.044898,-0.5457031 l -0.03721,0.2511475 c -0.02481,0.1674314 -0.102319,0.3100585 -0.272851,0.3100585 -0.170532,0 -0.310059,-0.1395265 -0.310059,-0.3100585 V 3.3648197 c 0,-0.170532 0.139527,-0.3100586 0.310059,-0.3100586 z m -9.751343,1.1100098 c 0.170532,0 0.248047,0.1426271 0.272851,0.3100586 l 0.03721,0.2511474 c 0.235645,-0.3379635 0.660426,-0.5457031 1.044898,-0.5457031 0.933275,0 1.624707,0.8092539 1.624707,1.7239258 0,0.468188 -0.173633,0.9301761 -0.514697,1.2681396 -0.300757,0.2945554 -0.710035,0.4619873 -1.131714,0.4619873 -0.430981,0 -0.756543,-0.1953372 -1.023194,-0.5053955 v 1.3053467 c 0,0.1705321 -0.139526,0.3100586 -0.310058,0.3100586 -0.170532,0 -0.310059,-0.1395265 -0.310059,-0.3100586 V 4.4748295 c 0,-0.1705321 0.139527,-0.3100586 0.310059,-0.3100586 z m 3.689697,0 c 0.09612,0 0.244946,0.071314 0.297656,0.2666504 l 0.03101,0.2232422 c 0.08062,-0.1736327 0.412378,-0.486792 0.756543,-0.486792 0.421679,0 0.725537,0.062012 0.725537,0.3937744 0,0.1674315 -0.08992,0.2573486 -0.238745,0.2759521 C 25.956931,4.85 25.764694,4.7135746 25.584861,4.7135746 c -0.542602,0 -0.722437,0.4557867 -0.722437,1.0293945 v 1.5999024 c 0,0.1829344 -0.117822,0.2976562 -0.310059,0.2976562 -0.192236,0 -0.310058,-0.1147219 -0.310058,-0.3007568 V 4.4841312 c 0,-0.1860349 0.09922,-0.3193603 0.260449,-0.3193603 z m 3.587378,0.0062 c 0.948778,0 1.702222,0.7937509 1.702222,1.7363281 0,0.9301748 -0.765846,1.7177246 -1.702222,1.7177246 -0.930175,0 -1.699121,-0.7689463 -1.699121,-1.7177246 0,-0.9394766 0.765846,-1.7363281 1.699121,-1.7363281 z m 7.413501,0.0093 c 0.821654,0 1.519287,0.6790292 1.519287,1.5223877 0,0.058911 -0.0031,0.1178223 -0.0093,0.1767334 -0.0186,0.1519286 -0.15813,0.2728516 -0.310058,0.2728516 l -2.16731,0.0031 c 0.10542,0.4464839 0.514698,0.8557617 1.010791,0.8557617 0.353467,0 0.648023,-0.2015383 0.806153,-0.4309815 0.04961,-0.077515 0.164331,-0.1395263 0.257348,-0.1395263 0.170532,0 0.310059,0.1426271 0.310059,0.3131591 0,0.05271 -0.02481,0.1333253 -0.05581,0.1767334 -0.257348,0.3751706 -0.719336,0.6945313 -1.308447,0.6945313 -0.951879,0 -1.671216,-0.8092539 -1.671216,-1.7425293 0,-0.899169 0.713136,-1.7022217 1.618506,-1.7022217 z m -3.593579,0.5953125 c -0.592211,0 -1.013892,0.5084967 -1.013892,1.1038086 0,0.2883542 0.10542,0.5829104 0.291455,0.7875488 0.186035,0.2046385 0.468189,0.3317627 0.73794,0.3317627 0.573608,0 1.001489,-0.5239996 1.001489,-1.1038086 0,-0.5767084 -0.430982,-1.1193115 -1.016992,-1.1193115 z m -3.819922,0.021704 c -0.613915,0 -1.072803,0.5115973 -1.072803,1.1162109 0,0.6015131 0.489893,1.0852051 1.075904,1.0852051 0.595311,0 1.072802,-0.5022955 1.072802,-1.0914062 0,-0.6015131 -0.468189,-1.1100098 -1.075903,-1.1100098 z m -5.915918,0.0031 c -0.269751,0 -0.551904,0.1271242 -0.737939,0.3317627 -0.186035,0.2046385 -0.291455,0.4991946 -0.291455,0.7875488 0,0.5953119 0.42168,1.1038086 1.013891,1.1038086 0.58601,0 1.016992,-0.5426031 1.016992,-1.1193115 0,-0.579809 -0.427881,-1.1038086 -1.001489,-1.1038086 z m 13.329419,0 c -0.449585,0 -0.824756,0.3410649 -0.945679,0.7348389 l 1.826245,-0.0031 C 36.303582,5.1259529 35.943914,4.800391 35.503631,4.800391 Z" />
  <path
     d="m 43.512936,3.7267273 v 0.6201171 h -0.403077 c -0.16123,0 -0.294555,0.1333252 -0.294555,0.2945557 0,0.1612305 0.133325,0.2945557 0.294555,0.2945557 h 0.399976 l -0.0031,1.9440673 v 0.027905 c 0,0.4805908 0.291456,0.8402588 0.812354,0.8402588 0.229443,0 0.437183,-0.086816 0.595312,-0.2077393 0.07442,-0.05581 0.124024,-0.1550293 0.124024,-0.2449463 0,-0.1674316 -0.139526,-0.306958 -0.310059,-0.306958 -0.06821,0 -0.142627,0.031006 -0.192236,0.065112 -0.06201,0.043408 -0.139526,0.071314 -0.235645,0.071314 -0.142627,0 -0.173632,-0.065112 -0.173632,-0.2666504 v -0.0062 l 0.0031,-1.9192626 h 0.418579 c 0.161231,0 0.294556,-0.1333252 0.294556,-0.2945557 0,-0.1612304 -0.133325,-0.2945556 -0.294556,-0.2945556 H 44.133053 V 3.7267273 c 0,-0.1705323 -0.139527,-0.3100586 -0.310059,-0.3100586 -0.173633,0 -0.310058,0.1426269 -0.310058,0.3100586 z m 3.404443,0.5643066 c -0.905371,0 -1.618506,0.8030517 -1.618506,1.7022217 0,0.9332763 0.719336,1.7425292 1.671216,1.7425292 0.589111,0 1.051099,-0.3193603 1.308447,-0.6945312 0.03101,-0.043408 0.05581,-0.1240235 0.05581,-0.1767334 0,-0.1705322 -0.139527,-0.3131592 -0.310059,-0.3131592 -0.09302,0 -0.207739,0.062012 -0.257348,0.1395264 -0.15813,0.2294433 -0.452686,0.4309814 -0.806153,0.4309814 -0.496094,0 -0.905371,-0.4092773 -1.010791,-0.8557617 l 2.16731,-0.0031 c 0.151928,0 0.291455,-0.1209228 0.310058,-0.2728515 0.0062,-0.058911 0.0093,-0.1178223 0.0093,-0.1767334 0,-0.8433594 -0.697632,-1.5223877 -1.519287,-1.5223877 z m 0.880566,1.3518554 -1.826245,0.0031 c 0.120923,-0.3937744 0.496094,-0.7348388 0.945679,-0.7348388 0.440283,0 0.799951,0.3255615 0.880566,0.7317388 z M 49.534274,4.7716247 49.481564,4.5855896 C 49.435054,4.4181579 49.351339,4.275531 49.180807,4.275531 c -0.170532,0 -0.266651,0.1395263 -0.266651,0.3100586 l 0.0062,2.8494384 c 0,0.1736328 0.136425,0.3131592 0.310058,0.3131592 0.170532,0 0.310059,-0.1395264 0.310059,-0.3100586 l -0.0031,-1.2371338 c -0.0031,-0.79375 0.337964,-1.2960449 0.948779,-1.2960449 0.254249,0 0.41858,0.1674316 0.499195,0.3503662 0.07131,0.1581299 0.08682,0.3689697 0.08682,0.6108154 v 1.5657959 c 0,0.1705322 0.139527,0.3100586 0.310059,0.3100586 0.170532,0 0.310058,-0.1395264 0.310058,-0.3100586 V 5.8661315 c 0,-0.2604492 -0.0062,-0.5643066 -0.139526,-0.8650634 -0.170532,-0.3813721 -0.5302,-0.7162354 -1.072803,-0.7162354 -0.415478,0 -0.722436,0.269751 -0.945678,0.486792 z m 3.22771,-1.0448974 v 0.6201171 h -0.403076 c -0.161231,0 -0.294556,0.1333252 -0.294556,0.2945557 0,0.1612305 0.133325,0.2945557 0.294556,0.2945557 h 0.399975 l -0.0031,1.9440673 v 0.027905 c 0,0.4805908 0.291455,0.8402588 0.812353,0.8402588 0.229444,0 0.437183,-0.086816 0.595313,-0.2077393 0.07441,-0.05581 0.124023,-0.1550293 0.124023,-0.2449463 0,-0.1674316 -0.139526,-0.306958 -0.310058,-0.306958 -0.06821,0 -0.142627,0.031006 -0.192237,0.065112 -0.06201,0.043408 -0.139526,0.071314 -0.235644,0.071314 -0.142627,0 -0.173633,-0.065112 -0.173633,-0.2666504 v -0.0062 L 53.379,4.9328552 h 0.41858 c 0.16123,0 0.294555,-0.1333252 0.294555,-0.2945557 0,-0.1612304 -0.133325,-0.2945556 -0.294555,-0.2945556 H 53.382101 V 3.7267273 c 0,-0.1705323 -0.139526,-0.3100586 -0.310059,-0.3100586 -0.173632,0 -0.310058,0.1426269 -0.310058,0.3100586 z m 3.531567,0.5395019 c -0.964282,0 -1.699121,0.8278564 -1.699121,1.7487305 0,0.9270751 0.756543,1.7332275 1.69292,1.7332275 0.415478,0 0.877466,-0.1767334 1.094507,-0.5457032 l 0.03411,0.2480469 c 0,0.1705322 0.10542,0.3100586 0.275952,0.3100586 0.170532,0 0.310059,-0.1395264 0.310059,-0.3100586 l 0.0062,-2.8711425 v -0.0062 c 0,-0.1705322 -0.139526,-0.3100586 -0.310059,-0.3100586 -0.170532,0 -0.275952,0.1395264 -0.275952,0.3100586 l -0.03411,0.2976563 C 57.220626,4.582489 56.749337,4.2662292 56.293551,4.2662292 Z m 1.069702,1.7425293 c 0,0.5984131 -0.47749,1.1193115 -1.072803,1.1193115 -0.598413,0 -1.082104,-0.5208984 -1.082104,-1.1224121 0,-0.5953125 0.471289,-1.1193115 1.079004,-1.1193115 0.617016,0 1.075903,0.5177978 1.075903,1.1224121 z m 1.141016,-0.0031 c 0,0.9332763 0.703833,1.751831 1.64331,1.751831 0.63252,0 1.116211,-0.3689697 1.351856,-0.8030517 0.0217,-0.040308 0.04031,-0.1085205 0.04031,-0.1519287 0,-0.1705323 -0.139526,-0.3100586 -0.310058,-0.3100586 -0.10232,0 -0.226343,0.074414 -0.275953,0.164331 -0.139526,0.2573487 -0.42788,0.4805908 -0.806152,0.4805908 -0.586011,0 -1.023193,-0.5395019 -1.023193,-1.1317138 0,-0.5798096 0.42478,-1.1069092 0.992187,-1.1069092 0.399976,0 0.700733,0.2573487 0.818555,0.5550049 0.04341,0.1116211 0.170532,0.2015381 0.288354,0.2015381 0.170533,0 0.310059,-0.1395264 0.310059,-0.3100586 0,-0.034106 -0.0093,-0.086816 -0.0217,-0.1178223 -0.201538,-0.508496 -0.716235,-0.9487792 -1.395264,-0.9487792 -0.917773,0 -1.612304,0.8123535 -1.612304,1.7270263 z m 3.80752,-2.852539 c -0.167432,0 -0.294556,0.1519287 -0.294556,0.3100586 v 3.9594481 c 0,0.1829346 0.148828,0.3100586 0.328662,0.3100586 0.127124,0 0.291455,-0.1116211 0.291455,-0.2759521 V 3.4631775 c 0.0031,-0.1519287 -0.127124,-0.3100586 -0.325561,-0.310058 z m 2.424658,1.137915 c -0.905371,0 -1.618506,0.8030517 -1.618506,1.7022217 0,0.9332763 0.719336,1.7425292 1.671216,1.7425292 0.589111,0 1.051098,-0.3193603 1.308447,-0.6945312 0.03101,-0.043408 0.05581,-0.1240235 0.05581,-0.1767334 0,-0.1705322 -0.139526,-0.3131592 -0.310058,-0.3131592 -0.09302,0 -0.207739,0.062012 -0.257349,0.1395264 -0.15813,0.2294433 -0.452685,0.4309814 -0.806152,0.4309814 -0.496094,0 -0.905371,-0.4092773 -1.010791,-0.8557617 l 2.167309,-0.0031 c 0.151929,0 0.291456,-0.1209228 0.310059,-0.2728515 0.0062,-0.058911 0.0093,-0.1178223 0.0093,-0.1767334 0,-0.8433594 -0.697632,-1.5223877 -1.519287,-1.5223877 z m 0.880566,1.3518554 -1.826245,0.0031 c 0.120923,-0.3937744 0.496094,-0.7348388 0.945679,-0.7348388 0.440283,0 0.799951,0.3255615 0.880566,0.7317388 z"
     id="text4508-2-9-8-7-2-90"
     style="font-weight:bold;font-size:6.35px;font-family:Manjari;-inkscape-font-specification:'Manjari, Bold';font-variant-ligatures:discretionary-ligatures;stroke-width:3"
     aria-label="tentacle" />
</svg>
