<?xml version="1.0" encoding="UTF-8" standalone="no"?>
<svg
   version="1.1"
   width="100.1268mm"
   height="160.6550mm"
   viewBox="0.0000 0.0000 100.1268 160.6550"
   id="svg3865"
   sodipodi:docname="octoprobe_logo_v3_list_fonts_inkscape.svg"
   inkscape:version="1.3.1 (9b9bdc1480, 2023-11-25, custom)"
   xmlns:inkscape="http://www.inkscape.org/namespaces/inkscape"
   xmlns:sodipodi="http://sodipodi.sourceforge.net/DTD/sodipodi-0.dtd"
   xmlns="http://www.w3.org/2000/svg"
   xmlns:svg="http://www.w3.org/2000/svg"
   xmlns:rdf="http://www.w3.org/1999/02/22-rdf-syntax-ns#"
   xmlns:cc="http://creativecommons.org/ns#"
   xmlns:dc="http://purl.org/dc/elements/1.1/">
  <defs
     id="defs3865" />
  <sodipodi:namedview
     id="namedview3865"
     pagecolor="#ffffff"
     bordercolor="#000000"
     borderopacity="0.25"
     inkscape:showpageshadow="2"
     inkscape:pageopacity="0.0"
     inkscape:pagecheckerboard="0"
     inkscape:deskcolor="#d1d1d1"
     inkscape:document-units="mm"
     inkscape:zoom="1.8818916"
     inkscape:cx="70.142192"
     inkscape:cy="450.61044"
     inkscape:window-width="1854"
     inkscape:window-height="1011"
     inkscape:window-x="0"
     inkscape:window-y="0"
     inkscape:window-maximized="1"
     inkscape:current-layer="svg3865"
     showguides="true" />
  <title
     id="title1">SVG Image created as pcb_octoprobe-brd.svg date 2024/06/20 16:40:08 </title>
  <desc
     id="desc1">Image generated by PCBNEW </desc>
  <path
     style="fill:#000000;fill-opacity:1;fill-rule:evenodd;stroke:none;stroke-width:0.15;stroke-linecap:round;stroke-linejoin:round;stroke-opacity:1"
     d="m 52.1338,151.7724 0.1257,0.123 0.1519,0.2985 0.0034,1.1927 -0.1468,0.2988 -0.123,0.1257 -0.2988,0.1521 -0.7167,0.003 -0.1013,-0.0498 -0.0019,-2.2405 0.0924,-0.047 0.7167,-0.003 z"
     id="path65" />
  <path
     style="fill:#000000;fill-opacity:1;fill-rule:evenodd;stroke:none;stroke-width:0.15;stroke-linecap:round;stroke-linejoin:round;stroke-opacity:1"
     d="m 59.7528,151.7724 0.1257,0.123 0.1519,0.2985 0.0034,1.1927 -0.1467,0.2988 -0.1231,0.1257 -0.299,0.1522 -0.4789,0.003 -0.2978,-0.1462 -0.1257,-0.1231 -0.1519,-0.2984 -0.0034,-1.1927 0.1468,-0.2989 0.123,-0.1257 0.299,-0.1522 0.4789,-0.003 z"
     id="path66" />
  <path
     style="fill:#000000;fill-opacity:1;fill-rule:evenodd;stroke:none;stroke-width:0.15;stroke-linecap:round;stroke-linejoin:round;stroke-opacity:1"
     d="m 64.2766,151.7724 0.1257,0.123 0.1519,0.2985 0.0034,1.1927 -0.1467,0.2988 -0.1231,0.1257 -0.2987,0.1521 -0.7168,0.003 -0.0998,-0.0491 -0.0019,-2.2419 0.091,-0.0463 0.7167,-0.003 z"
     id="path67" />
  <path
     style="fill:#000000;fill-opacity:1;fill-rule:evenodd;stroke:none;stroke-width:0.15;stroke-linecap:round;stroke-linejoin:round;stroke-opacity:1"
     d="m 68.7286,151.7371 0.0905,0.1777 -1.3638,0.2752 -5e-4,-0.2224 0.1116,-0.2273 0.219,-0.1114 0.7167,-0.003 z"
     id="path68" />
  <path
     style="fill:#000000;fill-opacity:1;fill-rule:evenodd;stroke:none;stroke-width:0.15;stroke-linecap:round;stroke-linejoin:round;stroke-opacity:1"
     d="m 62.1729,149.4579 0.0017,1.9339 -4e-4,0.006 4e-4,0.002 0.0023,2.7711 -0.0027,0.0133 0.0028,0.0462 2e-4,0.2926 0.0338,0.126 0.0653,0.1131 0.0923,0.0923 0.113,0.0652 0.1261,0.0338 h 0.1305 l 0.1261,-0.0338 0.0459,-0.0265 0.0113,0.006 0.0363,0.0209 0.014,0.004 0.014,0.007 0.0494,0.0101 0.0487,0.013 0.0221,10e-4 0.0077,0.001 0.0085,-5e-4 0.0269,0.002 0.9428,-0.004 0.0451,0.003 0.0144,-0.003 0.0154,-1e-4 0.0487,-0.013 0.0493,-0.0101 0.0205,-0.009 0.0076,-0.002 0.0073,-0.004 0.0249,-0.0105 0.4332,-0.2205 0.0107,-0.003 0.0378,-0.0218 0.051,-0.0259 0.0112,-0.01 0.0131,-0.008 0.0492,-0.0431 0.2044,-0.2089 0.0077,-0.005 0.0262,-0.0295 0.0429,-0.0438 0.0075,-0.0131 0.01,-0.0112 0.033,-0.0565 0.2319,-0.4722 0.0209,-0.0362 0.0038,-0.0141 0.0069,-0.014 0.0101,-0.0493 0.013,-0.0487 0.0015,-0.0222 0.0015,-0.008 -5e-4,-0.009 0.0018,-0.027 -0.0041,-1.4173 0.0028,-0.0467 -0.0029,-0.0146 -1e-4,-0.0152 -0.013,-0.0487 -0.0101,-0.0494 -0.0086,-0.0204 -0.0021,-0.008 -0.0042,-0.007 -0.0105,-0.0249 -0.0074,-0.0145 h 0.965 l 0.0021,0.9701 -0.001,0.0156 0.001,0.005 0.002,0.9018 -0.0029,0.0476 0.003,0.0146 v 0.0152 l 0.0131,0.0487 0.0101,0.0493 0.0086,0.0205 0.002,0.008 0.0043,0.007 0.0104,0.0249 0.2277,0.4474 0.008,0.0239 0.0183,0.0277 0.0172,0.0337 0.0199,0.0224 0.0165,0.0251 0.0266,0.0236 0.0236,0.0265 0.025,0.0166 0.0225,0.0199 0.0564,0.033 0.0049,0.002 h 1e-4 v 10e-5 l 0.4672,0.2294 0.0363,0.0209 0.014,0.004 0.014,0.007 0.0494,0.0101 0.0487,0.013 0.0221,0.001 0.0077,0.001 0.0085,-5e-4 0.0269,0.002 0.9428,-0.004 0.0451,0.003 0.0144,-0.003 0.0154,-1e-4 0.0487,-0.013 0.0493,-0.0101 0.0205,-0.009 0.0076,-0.002 0.0073,-0.004 0.0249,-0.0105 0.5327,-0.2711 0.0976,-0.0866 0.072,-0.1089 0.0412,-0.1239 0.0079,-0.1302 -0.0262,-0.1279 -0.0584,-0.1168 -0.0866,-0.0976 -0.1089,-0.0719 -0.1238,-0.0413 -0.1303,-0.008 -0.1279,0.0261 -0.0603,0.0254 -0.365,0.1858 -0.7167,0.003 -0.2266,-0.1113 -0.1112,-0.2185 -9e-4,-0.431 1.9322,-0.3898 h 0.0152 l 0.0463,-0.0125 0.0496,-0.01 0.0145,-0.007 0.0157,-0.004 0.0426,-0.0247 0.0442,-0.0218 0.0122,-0.0107 0.014,-0.008 0.0348,-0.0348 0.0371,-0.0326 0.0089,-0.0134 0.0115,-0.0115 0.0246,-0.0427 0.0274,-0.041 0.0052,-0.0153 0.008,-0.014 0.0128,-0.0476 0.0158,-0.0467 0.001,-0.0162 0.0042,-0.0156 0.0043,-0.0653 -0.0037,-0.4706 0.0025,-0.041 -0.0029,-0.0142 -2e-4,-0.0156 -0.013,-0.0487 -0.0101,-0.0494 -0.0086,-0.0204 -0.0021,-0.008 -0.0042,-0.007 -0.0105,-0.0249 -0.2277,-0.4473 -0.0079,-0.0239 -0.0184,-0.0278 -0.0171,-0.0336 -0.0199,-0.0225 -0.0166,-0.025 -0.0265,-0.0236 -0.0236,-0.0266 -0.0251,-0.0165 -0.0224,-0.0199 -0.0565,-0.0331 -0.0048,-0.002 -1e-4,-1e-4 h -1e-4 l -0.4672,-0.2295 -0.0362,-0.0209 -0.014,-0.004 -0.0141,-0.007 -0.0493,-0.0101 -0.0487,-0.0131 -0.0222,-10e-4 -0.0076,-0.002 -0.0085,5e-4 -0.027,-0.002 -0.9427,0.004 -0.0451,-0.003 -0.0144,0.003 h -0.0154 l -0.0487,0.0131 -0.0494,0.0101 -0.0204,0.009 -0.0076,0.002 -0.0074,0.004 -0.0249,0.0104 -0.4473,0.2277 -0.0239,0.008 -0.0278,0.0183 -0.0336,0.0172 -0.0225,0.0199 -0.025,0.0165 -0.0236,0.0266 -0.0266,0.0236 -0.0165,0.025 -0.0199,0.0225 -0.0331,0.0564 -0.0024,0.005 v 1e-4 0 l -0.2294,0.4672 -0.021,0.0363 -0.0037,0.014 -0.0069,0.014 -0.0101,0.0494 -0.0131,0.0487 -0.0014,0.0221 -0.0016,0.008 5e-4,0.008 -0.0017,0.0269 h -0.965 l -0.2131,-0.4187 -0.0029,-0.0107 -0.0217,-0.0377 -0.026,-0.051 -0.01,-0.0113 -0.0075,-0.013 -0.0431,-0.0492 -0.2089,-0.2044 -0.0051,-0.008 -0.0296,-0.0263 -0.0437,-0.0428 -0.0131,-0.008 -0.0112,-0.01 -0.0565,-0.0331 -0.4722,-0.2319 -0.0362,-0.0209 -0.0141,-0.004 -0.014,-0.007 -0.0493,-0.0101 -0.0487,-0.0131 -0.0222,-10e-4 -0.0076,-0.002 -0.0085,5e-4 -0.027,-0.002 -0.9318,0.004 -10e-4,-1.2359 -0.0338,-0.126 -0.0653,-0.1131 -0.0923,-0.0923 -0.113,-0.0652 -0.1261,-0.0338 h -0.1305 l -0.1261,0.0338 -0.113,0.0652 -0.0923,0.0923 -0.0653,0.1131 -0.0338,0.126 -0.0043,0.0653 m -13.451211,-2.81175 25.46846,0.25016 -1.201368,10.86882 -24.099725,0.24562 m 1.141044,-6.87705 0.0026,3.0533 -0.0014,0.006 0.0014,0.0224 0.0017,1.983 0.0337,0.1261 0.0653,0.113 0.0923,0.0923 0.113,0.0653 0.1261,0.0338 h 0.1305 l 0.1261,-0.0338 0.1131,-0.0653 0.0923,-0.0923 0.0652,-0.113 0.0338,-0.1261 0.0043,-0.0652 -10e-4,-1.1668 0.9199,-0.004 0.0451,0.003 0.0144,-0.003 0.0154,-1e-4 0.0487,-0.013 0.0494,-0.0101 0.0204,-0.009 0.0076,-0.002 0.0074,-0.004 0.0249,-0.0105 0.4332,-0.2205 0.0107,-0.003 0.0377,-0.0218 0.051,-0.0259 0.0113,-0.01 0.013,-0.008 0.0492,-0.0431 0.2044,-0.2089 0.0077,-0.005 0.0263,-0.0295 0.0428,-0.0438 0.0075,-0.0131 0.01,-0.0112 0.0331,-0.0565 0.2318,-0.4722 0.021,-0.0362 0.0037,-0.0141 0.0069,-0.014 0.0101,-0.0493 0.0131,-0.0487 0.0014,-0.0222 0.0016,-0.008 -5e-4,-0.009 0.0017,-0.027 -0.004,-1.4173 0.0028,-0.0467 -0.003,-0.0146 v -0.0152 l -0.0131,-0.0487 -0.0101,-0.0494 -0.0086,-0.0204 -0.002,-0.008 -0.0043,-0.007 -0.0104,-0.0249 -0.2206,-0.4332 -0.0028,-0.0107 -0.0218,-0.0377 -0.026,-0.051 -0.01,-0.0113 -0.0075,-0.013 -0.0431,-0.0492 -0.1253,-0.1226 h 1.6527 l 0.0043,3.3986 0.0338,0.126 0.0652,0.1131 0.0923,0.0923 0.1131,0.0652 0.126,0.0338 h 0.1306 l 0.126,-0.0338 0.1131,-0.0652 0.0923,-0.0923 0.0652,-0.1131 0.0338,-0.126 0.0043,-0.0653 -0.0028,-2.2591 0.0598,-0.1219 h 1.8001 l 0.0041,1.4174 -0.0028,0.0467 0.003,0.0145 v 0.0153 l 0.0131,0.0487 0.0101,0.0493 0.0086,0.0205 0.002,0.008 0.0042,0.007 0.0105,0.0249 0.2205,0.4332 0.0029,0.0107 0.0218,0.0378 0.0259,0.051 0.01,0.0112 0.0076,0.0131 0.0431,0.0492 0.2088,0.2044 0.0051,0.008 0.0296,0.0262 0.0437,0.0429 0.0131,0.008 0.0113,0.01 0.0564,0.033 0.4722,0.2319 0.0363,0.0209 0.014,0.004 0.014,0.007 0.0494,0.0101 0.0487,0.013 0.0221,0.001 0.0077,0.001 0.0085,-5e-4 0.0269,0.002 0.7061,-0.004 0.0436,0.003 0.0144,-0.003 0.0155,-1e-4 0.0486,-0.013 0.0494,-0.0101 0.0205,-0.009 0.0075,-0.002 0.0074,-0.004 0.0249,-0.0105 0.4332,-0.2205 0.0107,-0.003 0.0378,-0.0218 0.051,-0.0259 0.0112,-0.01 0.0131,-0.008 0.0491,-0.0431 0.2045,-0.2089 0.0077,-0.005 0.0262,-0.0295 0.0429,-0.0438 0.0075,-0.0131 0.01,-0.0112 0.033,-0.0565 0.2319,-0.4722 0.0209,-0.0362 0.0038,-0.0141 0.0069,-0.014 0.0101,-0.0493 0.013,-0.0487 0.0015,-0.0222 0.0015,-0.008 -5e-4,-0.009 0.0018,-0.027 -0.0041,-1.4173 0.0028,-0.0467 -0.003,-0.0146 v -0.0152 l -0.013,-0.0487 -0.0101,-0.0494 -0.0087,-0.0204 -0.002,-0.008 -0.0042,-0.007 -0.0105,-0.0249 -0.2205,-0.4332 -0.0029,-0.0107 -0.0218,-0.0377 -0.0259,-0.051 -0.01,-0.0113 -0.0075,-0.013 -0.0432,-0.0492 -0.2088,-0.2044 -0.0051,-0.008 -0.0296,-0.0263 -0.0437,-0.0428 -0.0131,-0.008 -0.0112,-0.01 -0.0565,-0.0331 -0.4722,-0.2319 -0.0363,-0.0209 -0.014,-0.004 -0.014,-0.007 -0.0494,-0.0101 -0.0486,-0.0131 -0.0222,-0.001 -0.0077,-0.002 -0.0084,5e-4 -0.027,-0.002 -0.7061,0.004 -0.0436,-0.003 -0.0144,0.003 h -0.0154 l -0.0487,0.0131 -0.0494,0.0101 -0.0205,0.009 -0.0075,0.002 -0.0074,0.004 -0.0249,0.0104 -0.4332,0.2205 -0.0107,0.003 -0.0378,0.0218 -0.0509,0.026 -0.0113,0.01 -0.0131,0.008 -0.0491,0.0431 -0.2045,0.2088 -0.0077,0.005 -0.0262,0.0296 -0.0428,0.0438 -0.0076,0.013 -0.01,0.0113 -0.033,0.0564 -0.2319,0.4722 -0.0209,0.0363 -0.0038,0.014 -0.0068,0.014 -0.0101,0.0494 -0.0131,0.0487 -0.0014,0.0221 -0.0016,0.008 5e-4,0.008 -0.0018,0.0269 h -1.8001 l 0.086,-0.1751 0.1231,-0.1257 0.2995,-0.1524 0.4282,-0.003 0.1261,-0.0338 0.113,-0.0653 0.0923,-0.0923 0.0653,-0.113 0.0338,-0.1261 v -0.1305 l -0.0338,-0.1261 -0.0653,-0.113 -0.0923,-0.0923 -0.113,-0.0653 -0.1261,-0.0338 -0.0652,-0.004 -0.4707,0.004 -0.041,-0.003 -0.0141,0.003 -0.0157,1e-4 -0.0487,0.0131 -0.0493,0.0101 -0.0205,0.009 -0.0076,0.002 -0.0073,0.004 -0.0249,0.0104 -0.3204,0.1631 -0.0117,-0.0202 -0.0923,-0.0923 -0.1131,-0.0653 -0.126,-0.0338 h -0.1306 l -0.126,0.0338 -0.1131,0.0653 -0.0923,0.0923 -0.0652,0.113 -0.0338,0.1261 -0.0043,0.0653 h -1.6527 l -0.0835,-0.0818 -0.0051,-0.008 -0.0296,-0.0263 -0.0438,-0.0428 -0.013,-0.008 -0.0113,-0.01 -0.0564,-0.0331 -0.4723,-0.2319 -0.0362,-0.0209 -0.014,-0.004 -0.014,-0.007 -0.0494,-0.0101 -0.0487,-0.0131 -0.0221,-10e-4 -0.0077,-0.002 -0.0085,5e-4 -0.0269,-0.002 -0.9428,0.004 -0.0451,-0.003 -0.0144,0.003 H 50.941 l -0.0487,0.0131 -0.0493,0.0101 -0.0205,0.009 -0.0076,0.002 -0.0073,0.004 -0.0249,0.0104 -0.019,0.01 -0.0423,-0.0244 -0.1261,-0.0338 h -0.1305 l -0.1261,0.0338 -0.113,0.0653 -0.0923,0.0923 -0.0653,0.113 -0.0337,0.1261 -0.0043,0.0653"
     id="path69"
     sodipodi:nodetypes="ccccccccccccccccccccccccccccccccccccccccccccccccccccccccccccccccccccccccccccccccccccccccccccccccccccccccccccccccccccccccccccccccccccccccccccccccccccccccccccccccccccccccccccccccccccccccccccccccccccccccccccccccccccccccccccccccccccccccccccccccccccccccccccccccccccccccccccccccccccccccccccccccccccccccccccccccccccccccccccccccccccccccccccccccccccccccccccccccccccccccccccccccccccccccccccccccccccccccccccccccccccccccccccccccccccccccccccccccccccccccccccccccccccccccccccccccccccccccccccccccccccccccccccccccccccccccccccccccccccccccccccccccccccccccccccccccccccccccccccccccccccccccccc" />
  <g
     style="fill:none;  stroke:#000000; stroke-width:1.0000; stroke-opacity:1;  stroke-linecap:round; stroke-linejoin:round;"
     id="g966">
    <text
       x="36.1938"
       y="155.1266"
       textLength="18.9048"
       font-size="6.6667"
       lengthAdjust="spacingAndGlyphs"
       text-anchor="middle"
       opacity="0"
       id="text918">Octo</text>
    <g
       class="stroked-text"
       id="g965">
      <desc
         id="desc918">Octo</desc>
      <path
         d="M29.8843 149.4627 L30.8367 149.4627 "
         id="path918" />
      <path
         d="M30.8367 149.4627 L31.3128 149.7008 "
         id="path919" />
      <path
         d="M31.3128 149.7008 L31.7890 150.1770 "
         id="path920" />
      <path
         d="M31.7890 150.1770 L32.0271 151.1294 "
         id="path921" />
      <path
         d="M32.0271 151.1294 L32.0271 152.7960 "
         id="path922" />
      <path
         d="M32.0271 152.7960 L31.7890 153.7484 "
         id="path923" />
      <path
         d="M31.7890 153.7484 L31.3128 154.2246 "
         id="path924" />
      <path
         d="M31.3128 154.2246 L30.8367 154.4627 "
         id="path925" />
      <path
         d="M30.8367 154.4627 L29.8843 154.4627 "
         id="path926" />
      <path
         d="M29.8843 154.4627 L29.4081 154.2246 "
         id="path927" />
      <path
         d="M29.4081 154.2246 L28.9319 153.7484 "
         id="path928" />
      <path
         d="M28.9319 153.7484 L28.6938 152.7960 "
         id="path929" />
      <path
         d="M28.6938 152.7960 L28.6938 151.1294 "
         id="path930" />
      <path
         d="M28.6938 151.1294 L28.9319 150.1770 "
         id="path931" />
      <path
         d="M28.9319 150.1770 L29.4081 149.7008 "
         id="path932" />
      <path
         d="M29.4081 149.7008 L29.8843 149.4627 "
         id="path933" />
      <path
         d="M36.3128 154.2246 L35.8367 154.4627 "
         id="path934" />
      <path
         d="M35.8367 154.4627 L34.8843 154.4627 "
         id="path935" />
      <path
         d="M34.8843 154.4627 L34.4081 154.2246 "
         id="path936" />
      <path
         d="M34.4081 154.2246 L34.1700 153.9865 "
         id="path937" />
      <path
         d="M34.1700 153.9865 L33.9319 153.5103 "
         id="path938" />
      <path
         d="M33.9319 153.5103 L33.9319 152.0817 "
         id="path939" />
      <path
         d="M33.9319 152.0817 L34.1700 151.6056 "
         id="path940" />
      <path
         d="M34.1700 151.6056 L34.4081 151.3675 "
         id="path941" />
      <path
         d="M34.4081 151.3675 L34.8843 151.1294 "
         id="path942" />
      <path
         d="M34.8843 151.1294 L35.8367 151.1294 "
         id="path943" />
      <path
         d="M35.8367 151.1294 L36.3128 151.3675 "
         id="path944" />
      <path
         d="M37.7414 151.1294 L39.6462 151.1294 "
         id="path945" />
      <path
         d="M38.4557 149.4627 L38.4557 153.7484 "
         id="path946" />
      <path
         d="M38.4557 153.7484 L38.6938 154.2246 "
         id="path947" />
      <path
         d="M38.6938 154.2246 L39.1700 154.4627 "
         id="path948" />
      <path
         d="M39.1700 154.4627 L39.6462 154.4627 "
         id="path949" />
      <path
         d="M42.0271 154.4627 L41.5509 154.2246 "
         id="path950" />
      <path
         d="M41.5509 154.2246 L41.3128 153.9865 "
         id="path951" />
      <path
         d="M41.3128 153.9865 L41.0748 153.5103 "
         id="path952" />
      <path
         d="M41.0748 153.5103 L41.0748 152.0817 "
         id="path953" />
      <path
         d="M41.0748 152.0817 L41.3128 151.6056 "
         id="path954" />
      <path
         d="M41.3128 151.6056 L41.5509 151.3675 "
         id="path955" />
      <path
         d="M41.5509 151.3675 L42.0271 151.1294 "
         id="path956" />
      <path
         d="M42.0271 151.1294 L42.7414 151.1294 "
         id="path957" />
      <path
         d="M42.7414 151.1294 L43.2176 151.3675 "
         id="path958" />
      <path
         d="M43.2176 151.3675 L43.4557 151.6056 "
         id="path959" />
      <path
         d="M43.4557 151.6056 L43.6938 152.0817 "
         id="path960" />
      <path
         d="M43.6938 152.0817 L43.6938 153.5103 "
         id="path961" />
      <path
         d="M43.6938 153.5103 L43.4557 153.9865 "
         id="path962" />
      <path
         d="M43.4557 153.9865 L43.2176 154.2246 "
         id="path963" />
      <path
         d="M43.2176 154.2246 L42.7414 154.4627 "
         id="path964" />
      <path
         d="M42.7414 154.4627 L42.0271 154.4627 "
         id="path965" />
    </g>
  </g>
  <text
     xml:space="preserve"
     style="font-style:normal;font-variant:normal;font-weight:normal;font-stretch:normal;font-size:11.2889px;font-family:Dyuthi;-inkscape-font-specification:'Dyuthi, Normal';font-variant-ligatures:normal;font-variant-caps:normal;font-variant-numeric:normal;font-variant-east-asian:normal;fill:#000000;stroke-width:3"
     x="4.3616648"
     y="10.963574"
     id="text4508"><tspan
       sodipodi:role="line"
       id="tspan4508"
       x="4.3616648"
       y="10.963574">Octoprobe</tspan></text>
  <text
     xml:space="preserve"
     style="font-style:normal;font-variant:normal;font-weight:normal;font-stretch:normal;font-size:11.2889px;font-family:AnjaliOldLipi;-inkscape-font-specification:'AnjaliOldLipi, Normal';font-variant-ligatures:normal;font-variant-caps:normal;font-variant-numeric:normal;font-variant-east-asian:normal;fill:#000000;stroke-width:3"
     x="4.5104933"
     y="22.200708"
     id="text4508-2"><tspan
       sodipodi:role="line"
       id="tspan4508-0"
       x="4.5104933"
       y="22.200708">Octoprobe</tspan></text>
  <text
     xml:space="preserve"
     style="font-style:normal;font-variant:normal;font-weight:bold;font-stretch:normal;font-size:11.2889px;font-family:'DejaVu Sans';-inkscape-font-specification:'DejaVu Sans, Bold';font-variant-ligatures:normal;font-variant-caps:normal;font-variant-numeric:normal;font-variant-east-asian:normal;fill:#000000;stroke-width:3"
     x="4.6262484"
     y="44.585777"
     id="text4508-2-9-8"><tspan
       sodipodi:role="line"
       id="tspan4508-0-0-2"
       x="4.6262484"
       y="44.585777">Octoprobe</tspan></text>
  <text
     xml:space="preserve"
     style="font-style:normal;font-variant:normal;font-weight:bold;font-stretch:normal;font-size:11.2889px;font-family:'DejaVu Sans Mono';-inkscape-font-specification:'DejaVu Sans Mono, Bold';font-variant-ligatures:normal;font-variant-caps:normal;font-variant-numeric:normal;font-variant-east-asian:normal;fill:#000000;stroke-width:3"
     x="4.6813698"
     y="56.072617"
     id="text4508-2-9-8-7"><tspan
       sodipodi:role="line"
       id="tspan4508-0-0-2-2"
       x="4.6813698"
       y="56.072617">Octoprobe</tspan></text>
  <text
     xml:space="preserve"
     style="font-style:normal;font-variant:normal;font-weight:bold;font-stretch:normal;font-size:11.2889px;font-family:FreeMono;-inkscape-font-specification:'FreeMono, Bold';font-variant-ligatures:normal;font-variant-caps:normal;font-variant-numeric:normal;font-variant-east-asian:normal;fill:#000000;stroke-width:3"
     x="4.9514217"
     y="67.14492"
     id="text4508-2-9-8-7-2"><tspan
       sodipodi:role="line"
       id="tspan4508-0-0-2-2-9"
       x="4.9514217"
       y="67.14492">Octoprobe</tspan></text>
  <text
     xml:space="preserve"
     style="font-style:normal;font-variant:normal;font-weight:bold;font-stretch:normal;font-size:11.2889px;font-family:Manjari;-inkscape-font-specification:'Manjari, Bold';font-variant-ligatures:normal;font-variant-caps:normal;font-variant-numeric:normal;font-variant-east-asian:normal;fill:#000000;stroke-width:3"
     x="4.9128809"
     y="88.971664"
     id="text4508-2-9-8-7-2-4"><tspan
       sodipodi:role="line"
       id="tspan4508-0-0-2-2-9-6"
       x="4.9128809"
       y="88.971664">Octoprobe</tspan></text>
  <text
     xml:space="preserve"
     style="font-style:normal;font-variant:normal;font-weight:bold;font-stretch:normal;font-size:11.2889px;font-family:'Nimbus Mono PS';-inkscape-font-specification:'Nimbus Mono PS, Bold';font-variant-ligatures:normal;font-variant-caps:normal;font-variant-numeric:normal;font-variant-east-asian:normal;fill:#000000;stroke-width:3"
     x="4.9965773"
     y="76.631165"
     id="text4508-2-9-8-7-2-4-71"><tspan
       sodipodi:role="line"
       id="tspan4508-0-0-2-2-9-6-3"
       x="4.9965773"
       y="76.631165">Octoprobe</tspan></text>
  <text
     xml:space="preserve"
     style="font-style:normal;font-variant:normal;font-weight:bold;font-stretch:normal;font-size:11.2889px;font-family:'Noto Sans Mono';-inkscape-font-specification:'Noto Sans Mono, Bold';font-variant-ligatures:normal;font-variant-caps:normal;font-variant-numeric:normal;font-variant-east-asian:normal;fill:#000000;stroke-width:3"
     x="4.8498216"
     y="102.2942"
     id="text4508-2-9-8-7-2-4-71-0"><tspan
       sodipodi:role="line"
       id="tspan4508-0-0-2-2-9-6-3-3"
       x="4.8498216"
       y="102.2942">Octoprobe</tspan></text>
  <text
     xml:space="preserve"
     style="font-style:normal;font-variant:normal;font-weight:normal;font-stretch:normal;font-size:11.2889px;font-family:'Potti Sreeramulu';-inkscape-font-specification:'Potti Sreeramulu, Normal';font-variant-ligatures:normal;font-variant-caps:normal;font-variant-numeric:normal;font-variant-east-asian:normal;fill:#000000;stroke-width:3"
     x="4.8949771"
     y="113.66898"
     id="text4508-2-9-8-7-2-4-71-0-9"><tspan
       sodipodi:role="line"
       id="tspan4508-0-0-2-2-9-6-3-3-7"
       x="4.8949771"
       y="113.66898">Octoprobe</tspan></text>
  <text
     xml:space="preserve"
     style="font-style:normal;font-variant:normal;font-weight:normal;font-stretch:normal;font-size:11.2889px;font-family:Ramabhadra;-inkscape-font-specification:'Ramabhadra, Normal';font-variant-ligatures:normal;font-variant-caps:normal;font-variant-numeric:normal;font-variant-east-asian:normal;fill:#000000;stroke-width:3"
     x="4.8892646"
     y="125.5163"
     id="text4508-2-9-8-7-2-4-71-0-9-2"><tspan
       sodipodi:role="line"
       id="tspan4508-0-0-2-2-9-6-3-3-7-1"
       x="4.8892646"
       y="125.5163">Octoprobe</tspan></text>
  <text
     xml:space="preserve"
     style="font-style:normal;font-variant:normal;font-weight:normal;font-stretch:normal;font-size:11.2889px;font-family:'Ubuntu Sans Mono';-inkscape-font-specification:'Ubuntu Sans Mono, @wght=700';font-variant-ligatures:normal;font-variant-caps:normal;font-variant-numeric:normal;font-variant-east-asian:normal;font-variation-settings:'wght' 700;fill:#000000;stroke-width:3"
     x="4.8498216"
     y="134.77095"
     id="text4508-2-9-8-7-2-4-71-0-9-2-8-0"><tspan
       sodipodi:role="line"
       id="tspan4508-0-0-2-2-9-6-3-3-7-1-7-3"
       x="4.8498216"
       y="134.77095">Octoprobe</tspan></text>
  <text
     xml:space="preserve"
     style="font-style:normal;font-variant:normal;font-weight:normal;font-stretch:normal;font-size:11.2889px;font-family:FreeSans;-inkscape-font-specification:'FreeSans, Normal ';font-variant-ligatures:normal;font-variant-caps:normal;font-variant-numeric:normal;font-variant-east-asian:normal;fill:#000000;stroke-width:3"
     x="4.7369328"
     y="145.03189"
     id="text4508-2-9-8-7-2-4-71-0-9-2-8-0-1"><tspan
       sodipodi:role="line"
       id="tspan4508-0-0-2-2-9-6-3-3-7-1-7-3-7"
       x="4.7369328"
       y="145.03189">Octoprobe</tspan></text>
  <text
     xml:space="preserve"
     style="font-style:normal;font-variant:normal;font-weight:normal;font-stretch:normal;font-size:11.2889px;font-family:Keraleeyam;-inkscape-font-specification:'Keraleeyam, Normal';font-variant-ligatures:normal;font-variant-caps:normal;font-variant-numeric:normal;font-variant-east-asian:normal;fill:#000000;stroke-width:3"
     x="-63.635796"
     y="9.2826033"
     id="text4508-2-9-8-7-2-4-71-0-9-2-8-0-1-6"><tspan
       sodipodi:role="line"
       id="tspan4508-0-0-2-2-9-6-3-3-7-1-7-3-7-8"
       x="-63.635796"
       y="9.2826033">Octoprobe</tspan></text>
  <text
     xml:space="preserve"
     style="font-style:normal;font-variant:normal;font-weight:bold;font-stretch:condensed;font-size:11.2889px;font-family:'Liberation Sans Narrow';-inkscape-font-specification:'Liberation Sans Narrow, Bold Condensed';font-variant-ligatures:normal;font-variant-caps:normal;font-variant-numeric:normal;font-variant-east-asian:normal;fill:#000000;stroke-width:3"
     x="-63.486969"
     y="20.638041"
     id="text4508-2-9-8-7-2-4-71-0-9-2-8-0-1-6-7"><tspan
       sodipodi:role="line"
       id="tspan4508-0-0-2-2-9-6-3-3-7-1-7-3-7-8-2"
       x="-63.486969"
       y="20.638041">Octoprobe</tspan></text>
  <text
     xml:space="preserve"
     style="font-style:normal;font-variant:normal;font-weight:normal;font-stretch:normal;font-size:11.2889px;font-family:Mallanna;-inkscape-font-specification:'Mallanna, Normal';font-variant-ligatures:normal;font-variant-caps:normal;font-variant-numeric:normal;font-variant-east-asian:normal;fill:#000000;stroke-width:3"
     x="-63.456974"
     y="32.305584"
     id="text4508-2-9-8-7-2-4-71-0-9-2-8-0-1-6-7-7"><tspan
       sodipodi:role="line"
       id="tspan4508-0-0-2-2-9-6-3-3-7-1-7-3-7-8-2-5"
       x="-63.456974"
       y="32.305584">Octoprobe</tspan></text>
  <text
     xml:space="preserve"
     style="font-style:normal;font-variant:normal;font-weight:bold;font-stretch:normal;font-size:11.2889px;font-family:Manjari;-inkscape-font-specification:'Manjari, Bold';font-variant-ligatures:normal;font-variant-caps:normal;font-variant-numeric:normal;font-variant-east-asian:normal;fill:#000000;stroke-width:3"
     x="-63.382236"
     y="44.758892"
     id="text4508-2-9-8-7-2-4-71-0-9-2-8-0-1-6-7-7-6"><tspan
       sodipodi:role="line"
       id="tspan4508-0-0-2-2-9-6-3-3-7-1-7-3-7-8-2-5-4"
       x="-63.382236"
       y="44.758892">Octoprobe</tspan></text>
  <text
     xml:space="preserve"
     style="font-style:normal;font-variant:normal;font-weight:normal;font-stretch:normal;font-size:11.2889px;font-family:NATS;-inkscape-font-specification:'NATS, Normal';font-variant-ligatures:normal;font-variant-caps:normal;font-variant-numeric:normal;font-variant-east-asian:normal;fill:#000000;stroke-width:3"
     x="-63.455772"
     y="55.564671"
     id="text4508-2-9-8-7-2-4-71-0-9-2-8-0-1-6-7-7-6-3"><tspan
       sodipodi:role="line"
       id="tspan4508-0-0-2-2-9-6-3-3-7-1-7-3-7-8-2-5-4-3"
       x="-63.455772"
       y="55.564671">Octoprobe</tspan></text>
  <text
     xml:space="preserve"
     style="font-style:normal;font-variant:normal;font-weight:600;font-stretch:normal;font-size:11.2889px;font-family:'URW Gothic';-inkscape-font-specification:'URW Gothic, Semi-Bold';font-variant-ligatures:normal;font-variant-caps:normal;font-variant-numeric:normal;font-variant-east-asian:normal;fill:#000000;stroke-width:3"
     x="-63.445297"
     y="67.62574"
     id="text4508-2-9-8-7-2-4-71-0-9-2-8-0-1-6-7-7-6-3-0"><tspan
       sodipodi:role="line"
       id="tspan4508-0-0-2-2-9-6-3-3-7-1-7-3-7-8-2-5-4-3-8"
       x="-63.445297"
       y="67.62574">Octoprobe</tspan></text>
  <text
     xml:space="preserve"
     style="font-style:normal;font-variant:normal;font-weight:normal;font-stretch:normal;font-size:11.2889px;font-family:Ubuntu;-inkscape-font-specification:'Ubuntu, @wght=700,wdth=75.0';font-variant-ligatures:normal;font-variant-caps:normal;font-variant-numeric:normal;font-variant-east-asian:normal;font-variation-settings:'wdth' 75, 'wght' 700;fill:#000000;stroke-width:3"
     x="-63.682365"
     y="79.75058"
     id="text4508-2-9-8-7-2-4-71-0-9-2-8-0-1-6-7-7-6-3-0-8"><tspan
       sodipodi:role="line"
       id="tspan4508-0-0-2-2-9-6-3-3-7-1-7-3-7-8-2-5-4-3-8-3"
       x="-63.682365"
       y="79.75058">Octoprobe</tspan></text>
  <text
     xml:space="preserve"
     style="font-style:normal;font-variant:normal;font-weight:normal;font-stretch:normal;font-size:11.2889px;font-family:Ubuntu;-inkscape-font-specification:'Ubuntu, @wght=800,wdth=75.0';font-variant-ligatures:normal;font-variant-caps:normal;font-variant-numeric:normal;font-variant-east-asian:normal;font-variation-settings:'wdth' 75, 'wght' 800;fill:#000000;stroke-width:3"
     x="-63.659786"
     y="93.674103"
     id="text4508-2-9-8-7-2-4-71-0-9-2-8-0-1-6-7-7-6-3-0-8-5"><tspan
       sodipodi:role="line"
       id="tspan4508-0-0-2-2-9-6-3-3-7-1-7-3-7-8-2-5-4-3-8-3-6"
       x="-63.659786"
       y="93.674103">Octoprobe</tspan></text>
  <text
     xml:space="preserve"
     style="font-style:normal;font-variant:normal;font-weight:normal;font-stretch:normal;font-size:11.2889px;font-family:Chandas;-inkscape-font-specification:'Chandas, Normal';font-variant-ligatures:normal;font-variant-caps:normal;font-variant-numeric:normal;font-variant-east-asian:normal;fill:#000000;stroke-width:3"
     x="4.549078"
     y="33.754322"
     id="text4508-2-9-8-7-2-4-7"><tspan
       sodipodi:role="line"
       id="tspan4508-0-0-2-2-9-6-6"
       x="4.549078"
       y="33.754322">Octoprobe</tspan></text>
  <metadata
     id="metadata4508">
    <rdf:RDF>
      <cc:Work
         rdf:about="">
        <dc:title>SVG Image created as pcb_octoprobe-brd.svg date 2024/06/20 16:40:08 </dc:title>
      </cc:Work>
    </rdf:RDF>
  </metadata>
</svg>
