<?xml version="1.0" encoding="UTF-8" standalone="no"?>
<!-- Created with Inkscape (http://www.inkscape.org/) -->

<svg
   width="210mm"
   height="297mm"
   viewBox="0 0 210 297"
   version="1.1"
   id="svg1"
   inkscape:version="1.3.1 (9b9bdc1480, 2023-11-25, custom)"
   sodipodi:docname="octoprobe_logo_v1_inkscape.svg"
   xmlns:inkscape="http://www.inkscape.org/namespaces/inkscape"
   xmlns:sodipodi="http://sodipodi.sourceforge.net/DTD/sodipodi-0.dtd"
   xmlns="http://www.w3.org/2000/svg"
   xmlns:svg="http://www.w3.org/2000/svg">
  <sodipodi:namedview
     id="namedview1"
     pagecolor="#ffffff"
     bordercolor="#000000"
     borderopacity="0.25"
     inkscape:showpageshadow="2"
     inkscape:pageopacity="0.0"
     inkscape:pagecheckerboard="0"
     inkscape:deskcolor="#d1d1d1"
     inkscape:document-units="mm"
     showguides="true"
     inkscape:zoom="4.0718557"
     inkscape:cx="379.92505"
     inkscape:cy="698.45303"
     inkscape:window-width="1854"
     inkscape:window-height="1011"
     inkscape:window-x="0"
     inkscape:window-y="0"
     inkscape:window-maximized="1"
     inkscape:current-layer="layer1">
    <sodipodi:guide
       position="91.830388,105.10457"
       orientation="1,0"
       id="guide1"
       inkscape:locked="false" />
    <sodipodi:guide
       position="89.998258,105.34449"
       orientation="0,-1"
       id="guide2"
       inkscape:locked="false" />
    <sodipodi:guide
       position="90.492186,104.75867"
       orientation="0,-1"
       id="guide3"
       inkscape:locked="false" />
    <sodipodi:guide
       position="90.8253,103.23094"
       orientation="0,-1"
       id="guide4"
       inkscape:locked="false" />
    <sodipodi:guide
       position="87.49591,105.12731"
       orientation="1,0"
       id="guide5"
       inkscape:locked="false" />
    <sodipodi:guide
       position="89.699604,107.58439"
       orientation="1,0"
       id="guide6"
       inkscape:locked="false" />
  </sodipodi:namedview>
  <defs
     id="defs1" />
  <g
     inkscape:label="Layer 1"
     inkscape:groupmode="layer"
     id="layer1">
    <path
       style="fill:#000000;fill-opacity:1;fill-rule:evenodd;stroke:#000000;stroke-width:0.8;stroke-linecap:round;stroke-linejoin:round;stroke-opacity:1"
       d="m 90.538532,188.06467 v 0.11 z"
       id="path1494" />
    <path
       style="fill:#000000;fill-opacity:1;fill-rule:evenodd;stroke:#000000;stroke-width:0.8;stroke-linecap:round;stroke-linejoin:round;stroke-opacity:1"
       d="m 88.862132,188.08167 v 0.11 z"
       id="path1495" />
    <g
       style="fill:none;stroke:#000000;stroke-width:1;stroke-linecap:round;stroke-linejoin:round;stroke-opacity:1"
       id="g1496"
       transform="translate(-3.1591677,5.1712667)">
      <path
         d="m 95.0078,181.3806 a 2.16645,2.16645 0 0 0 -4.3329,0"
         id="path1496" />
    </g>
    <path
       style="fill:#000000;fill-opacity:1;fill-rule:evenodd;stroke:#000000;stroke-width:0.93379;stroke-linecap:round;stroke-linejoin:round;stroke-opacity:1"
       d="m 91.819534,186.64525 h 0.06621 v 4.53719 h -0.06621 z"
       id="path1499" />
    <path
       style="fill:#000000;fill-opacity:1;fill-rule:evenodd;stroke:#000000;stroke-width:1;stroke-linecap:round;stroke-linejoin:round;stroke-opacity:1"
       d="m 89.649532,189.71567 h 0.0254 v 1.4224 h -0.0254 z"
       id="path1501" />
    <path
       style="fill:#000000;fill-opacity:1;fill-rule:evenodd;stroke:#000000;stroke-width:0.15;stroke-linecap:round;stroke-linejoin:round;stroke-opacity:1"
       d="m 103.88623,192.72557 h 20.6248 v 0.5334 h -20.6248 z"
       id="path1506" />
    <g
       style="fill:none;stroke:#000000;stroke-width:0.5;stroke-linecap:round;stroke-linejoin:round;stroke-opacity:1"
       id="g1521"
       transform="translate(-3.0475314,5.2064447)">
      <circle
         cx="94.891502"
         cy="187.84641"
         r="0.63499999"
         id="circle1520" />
    </g>
    <circle
       cx="87.513847"
       cy="193.03548"
       r="0.63499999"
       id="circle1529"
       style="fill:none;stroke:#000000;stroke-width:0.5;stroke-linecap:round;stroke-linejoin:round;stroke-opacity:1" />
    <circle
       cx="89.700333"
       cy="193.01767"
       r="0.63499999"
       id="circle1530"
       style="fill:none;stroke:#000000;stroke-width:0.5;stroke-linecap:round;stroke-linejoin:round;stroke-opacity:1" />
    <path
       style="fill:#000000;fill-opacity:1;fill-rule:evenodd;stroke:#000000;stroke-width:0.15;stroke-linecap:round;stroke-linejoin:round;stroke-opacity:1"
       d="m 93.599232,192.31917 h 10.236198 v 1.397 H 93.599232 Z"
       id="path1535" />
    <path
       style="fill:#000000;fill-opacity:1;fill-rule:evenodd;stroke:#000000;stroke-width:0.976183;stroke-linecap:round;stroke-linejoin:round;stroke-opacity:1"
       d="m 87.504023,186.65576 h 0.02382 v 4.49134 h -0.02382 z"
       id="path1541" />
    <text
       x="112.3032"
       y="185.35719"
       textLength="34.618999"
       font-size="6.6667px"
       lengthAdjust="spacingAndGlyphs"
       text-anchor="middle"
       opacity="0"
       id="text2125"
       transform="translate(-3.1591677,5.1712667)"
       style="fill:none;stroke:#000000;stroke-width:1;stroke-linecap:round;stroke-linejoin:round;stroke-opacity:1">ctoprobe</text>
    <g
       class="stroked-text"
       id="g2213"
       transform="translate(-3.1591677,5.1712667)"
       style="fill:none;stroke:#000000;stroke-width:1;stroke-linecap:round;stroke-linejoin:round;stroke-opacity:1">
      <desc
         id="desc2125">ctoprobe</desc>
      <path
         d="m 99.327,184.4552 -0.4762,0.2381"
         id="path2125" />
      <path
         d="M 98.8508,184.6933 H 97.8984"
         id="path2126" />
      <path
         d="m 97.8984,184.6933 -0.4762,-0.2381"
         id="path2127" />
      <path
         d="m 97.4222,184.4552 -0.238,-0.2381"
         id="path2128" />
      <path
         d="m 97.1842,184.2171 -0.2381,-0.4762"
         id="path2129" />
      <path
         d="m 96.9461,183.7409 v -1.4286"
         id="path2130" />
      <path
         d="m 96.9461,182.3123 0.2381,-0.4761"
         id="path2131" />
      <path
         d="m 97.1842,181.8362 0.238,-0.2381"
         id="path2132" />
      <path
         d="M 97.4222,181.5981 97.8984,181.36"
         id="path2133" />
      <path
         d="m 97.8984,181.36 h 0.9524"
         id="path2134" />
      <path
         d="m 98.8508,181.36 0.4762,0.2381"
         id="path2135" />
      <path
         d="m 100.7556,181.36 h 1.9047"
         id="path2136" />
      <path
         d="m 101.4699,179.6933 v 4.2857"
         id="path2137" />
      <path
         d="m 101.4699,183.979 0.2381,0.4762"
         id="path2138" />
      <path
         d="m 101.708,184.4552 0.4762,0.2381"
         id="path2139" />
      <path
         d="m 102.1842,184.6933 h 0.4761"
         id="path2140" />
      <path
         d="m 105.0413,184.6933 -0.4762,-0.2381"
         id="path2141" />
      <path
         d="m 104.5651,184.4552 -0.2381,-0.2381"
         id="path2142" />
      <path
         d="m 104.327,184.2171 -0.2381,-0.4762"
         id="path2143" />
      <path
         d="m 104.0889,183.7409 v -1.4286"
         id="path2144" />
      <path
         d="m 104.0889,182.3123 0.2381,-0.4761"
         id="path2145" />
      <path
         d="m 104.327,181.8362 0.2381,-0.2381"
         id="path2146" />
      <path
         d="m 104.5651,181.5981 0.4762,-0.2381"
         id="path2147" />
      <path
         d="m 105.0413,181.36 h 0.7143"
         id="path2148" />
      <path
         d="m 105.7556,181.36 0.4762,0.2381"
         id="path2149" />
      <path
         d="m 106.2318,181.5981 0.2381,0.2381"
         id="path2150" />
      <path
         d="m 106.4699,181.8362 0.2381,0.4761"
         id="path2151" />
      <path
         d="m 106.708,182.3123 v 1.4286"
         id="path2152" />
      <path
         d="m 106.708,183.7409 -0.2381,0.4762"
         id="path2153" />
      <path
         d="m 106.4699,184.2171 -0.2381,0.2381"
         id="path2154" />
      <path
         d="m 106.2318,184.4552 -0.4762,0.2381"
         id="path2155" />
      <path
         d="m 105.7556,184.6933 h -0.7143"
         id="path2156" />
      <path
         d="m 108.8508,181.36 v 5"
         id="path2157" />
      <path
         d="M 108.8508,181.5981 109.327,181.36"
         id="path2158" />
      <path
         d="m 109.327,181.36 h 0.9524"
         id="path2159" />
      <path
         d="m 110.2794,181.36 0.4762,0.2381"
         id="path2160" />
      <path
         d="m 110.7556,181.5981 0.2381,0.2381"
         id="path2161" />
      <path
         d="m 110.9937,181.8362 0.2381,0.4761"
         id="path2162" />
      <path
         d="m 111.2318,182.3123 v 1.4286"
         id="path2163" />
      <path
         d="m 111.2318,183.7409 -0.2381,0.4762"
         id="path2164" />
      <path
         d="m 110.9937,184.2171 -0.2381,0.2381"
         id="path2165" />
      <path
         d="m 110.7556,184.4552 -0.4762,0.2381"
         id="path2166" />
      <path
         d="M 110.2794,184.6933 H 109.327"
         id="path2167" />
      <path
         d="m 109.327,184.6933 -0.4762,-0.2381"
         id="path2168" />
      <path
         d="M 113.3746,184.6933 V 181.36"
         id="path2169" />
      <path
         d="m 113.3746,182.3123 0.2381,-0.4761"
         id="path2170" />
      <path
         d="m 113.6127,181.8362 0.2381,-0.2381"
         id="path2171" />
      <path
         d="M 113.8508,181.5981 114.327,181.36"
         id="path2172" />
      <path
         d="m 114.327,181.36 h 0.4762"
         id="path2173" />
      <path
         d="m 117.1842,184.6933 -0.4762,-0.2381"
         id="path2174" />
      <path
         d="m 116.708,184.4552 -0.2381,-0.2381"
         id="path2175" />
      <path
         d="m 116.4699,184.2171 -0.2381,-0.4762"
         id="path2176" />
      <path
         d="m 116.2318,183.7409 v -1.4286"
         id="path2177" />
      <path
         d="m 116.2318,182.3123 0.2381,-0.4761"
         id="path2178" />
      <path
         d="m 116.4699,181.8362 0.2381,-0.2381"
         id="path2179" />
      <path
         d="m 116.708,181.5981 0.4762,-0.2381"
         id="path2180" />
      <path
         d="m 117.1842,181.36 h 0.7142"
         id="path2181" />
      <path
         d="m 117.8984,181.36 0.4762,0.2381"
         id="path2182" />
      <path
         d="m 118.3746,181.5981 0.2381,0.2381"
         id="path2183" />
      <path
         d="m 118.6127,181.8362 0.2381,0.4761"
         id="path2184" />
      <path
         d="m 118.8508,182.3123 v 1.4286"
         id="path2185" />
      <path
         d="m 118.8508,183.7409 -0.2381,0.4762"
         id="path2186" />
      <path
         d="m 118.6127,184.2171 -0.2381,0.2381"
         id="path2187" />
      <path
         d="m 118.3746,184.4552 -0.4762,0.2381"
         id="path2188" />
      <path
         d="m 117.8984,184.6933 h -0.7142"
         id="path2189" />
      <path
         d="m 120.9937,184.6933 v -5"
         id="path2190" />
      <path
         d="m 120.9937,181.5981 0.4762,-0.2381"
         id="path2191" />
      <path
         d="m 121.4699,181.36 h 0.9523"
         id="path2192" />
      <path
         d="m 122.4222,181.36 0.4762,0.2381"
         id="path2193" />
      <path
         d="m 122.8984,181.5981 0.2381,0.2381"
         id="path2194" />
      <path
         d="m 123.1365,181.8362 0.2381,0.4761"
         id="path2195" />
      <path
         d="m 123.3746,182.3123 v 1.4286"
         id="path2196" />
      <path
         d="m 123.3746,183.7409 -0.2381,0.4762"
         id="path2197" />
      <path
         d="m 123.1365,184.2171 -0.2381,0.2381"
         id="path2198" />
      <path
         d="m 122.8984,184.4552 -0.4762,0.2381"
         id="path2199" />
      <path
         d="m 122.4222,184.6933 h -0.9523"
         id="path2200" />
      <path
         d="m 121.4699,184.6933 -0.4762,-0.2381"
         id="path2201" />
      <path
         d="m 127.4222,184.4552 -0.4761,0.2381"
         id="path2202" />
      <path
         d="m 126.9461,184.6933 h -0.9524"
         id="path2203" />
      <path
         d="m 125.9937,184.6933 -0.4762,-0.2381"
         id="path2204" />
      <path
         d="m 125.5175,184.4552 -0.2381,-0.4762"
         id="path2205" />
      <path
         d="m 125.2794,183.979 v -1.9048"
         id="path2206" />
      <path
         d="m 125.2794,182.0742 0.2381,-0.4761"
         id="path2207" />
      <path
         d="m 125.5175,181.5981 0.4762,-0.2381"
         id="path2208" />
      <path
         d="m 125.9937,181.36 h 0.9524"
         id="path2209" />
      <path
         d="m 126.9461,181.36 0.4761,0.2381"
         id="path2210" />
      <path
         d="m 127.4222,181.5981 0.2381,0.4761"
         id="path2211" />
      <path
         d="m 127.6603,182.0742 v 0.4762"
         id="path2212" />
      <path
         d="m 127.6603,182.5504 -2.3809,0.4762"
         id="path2213" />
    </g>
  </g>
</svg>
